<?xml version="1.0" encoding="utf-8"?>
<!-- Generator: Adobe Illustrator 24.0.3, SVG Export Plug-In . SVG Version: 6.00 Build 0)  -->
<svg version="1.1" id="Layer_1" xmlns="http://www.w3.org/2000/svg" xmlns:xlink="http://www.w3.org/1999/xlink" x="0px" y="0px"
	 viewBox="0 0 500 254" style="enable-background:new 0 0 500 254;" xml:space="preserve">
<style type="text/css">
	.st0{fill:#005470;}
	.st1{fill:#61B0BC;}
	.st2{fill:#D4C201;}
	.st3{fill:none;stroke:#FFFFFF;stroke-width:1.6898;stroke-miterlimit:10;}
	.st4{fill:#61B0BC;stroke:#FFFFFF;stroke-width:1.6898;stroke-miterlimit:10;}
</style>
<g>
	<g>
		<path class="st0" d="M42.1,204.9c-1.2,4.3-1.6,5.4-5.8,5.4H10.2c-1.2,0-3-0.1-3-1.6c0-0.6,0.3-0.9,1-0.9c1.1,0,2.5-0.6,2.5-4.1
			v-42.3c0-3.5-1.3-4-2.4-4c-0.9,0-1.1-0.4-1.1-0.9c0-1.5,1.7-1.6,3-1.6h23.3c1,0,3-0.2,4.4-0.2c2.3,0,2.4,2,2.4,4.5
			c0,2.2,0,8.8-1.8,8.8c-1.9,0-2-4-3-6.1c-1.3-2.7-4.4-3.5-7.5-3.5h-7.6c-1.7,0-2.4,0.3-2.4,2.5v19.1l11.4-0.8
			c0.9-0.1,3.6-0.3,4.4-0.3c2.2,0,2.3,1.4,2.3,2.7c0,2.3-1.9,2.3-3,2.3c-0.8,0-3.7-0.2-6.5-0.3l-8.6-0.4v20.6c0,2.5,0.2,2.7,1.5,2.7
			h7.2c2.7,0,5.5-0.2,7.2-0.9c3.7-1.4,4.8-3.6,6.5-6.9c0.6-1.2,0.9-1.6,1.8-1.6c0.9,0,1.1,1,1.1,1.6C43.2,199.8,43,201.6,42.1,204.9
			z"/>
		<path class="st0" d="M84.9,175.4c-1.8,0-2.3,0.8-3.5,4l-10.8,27.6c-1,2.6-1.8,4.2-3.2,4.2c-1.3,0-2-1.6-3.2-4.7l-9.8-25.7
			c-1.9-4.8-2.6-5.4-4.2-5.4c-0.9,0-1-0.5-1-1c0-1.5,1.7-1.9,2.9-1.9h7.6c1.5,0,2.9,0.4,2.9,1.9c0,0.5-0.2,1-1,1
			c-0.5,0-1.2,0.3-1.2,1.9c0,1.2,0.5,2.8,1.1,4.2l7.5,20.4l7.8-21.1c0.6-1.7,1-3,1-3.9c0-1.2-0.8-1.6-1.7-1.6c-0.5,0-0.8-0.5-0.8-1
			c0-1.5,1.3-1.9,2.7-1.9h5.6c1.2,0,2.3,0.4,2.3,1.9C85.9,174.9,85.6,175.4,84.9,175.4z"/>
		<path class="st0" d="M122.1,191.2h-22c0,7.4,2.5,15.9,11.2,15.9c5.1,0,7.6-2.2,9.9-5.3c0.3-0.5,0.9-1.3,1.8-1.3
			c0.8,0,1.6,0.5,1.6,1.4c0,0.8-0.1,1.1-0.4,1.6c-2.4,4.8-7.8,7.9-14.2,7.9c-9.8,0-16.8-6.8-16.8-19.5c0-13.4,6.6-20.6,16.6-20.6
			c10,0,15.3,6.8,15.3,15.6C124.9,190.5,123.4,191.2,122.1,191.2z M109.4,174.6c-7.8,0-9.3,8.2-9.3,11.7c0,1.5,0.2,1.5,1.5,1.5h13.6
			c2.3,0,2.6-0.5,2.6-3C117.8,180.3,115.8,174.6,109.4,174.6z"/>
		<path class="st0" d="M157.7,180.2c-1.9,0-2.4-3.4-5.8-3.4c-5.1,0-7.6,6.5-7.6,12.2v14.6c0,3.7,1.1,3.7,2.2,3.7c0.9,0,1,0.6,1,1
			c0,1.6-1.3,1.9-2.8,1.9h-7.2c-1.2,0-2.9-0.4-2.9-1.9c0-0.4,0.1-1,0.9-1c1.2,0,2.3,0,2.3-3.7v-24.4c0-3-0.5-3.8-2-3.8
			c-0.8,0-1.2-0.3-1.2-1c0-1.6,1.7-1.9,3-1.9h5c1.6,0,1.8,1.2,1.8,3c0,1.1-0.1,2.9-0.1,4.1c2.6-5.1,7.2-7.8,11.1-7.8
			c3.9,0,5.1,1.5,5.1,3.6C160.6,178.6,159,180.2,157.7,180.2z"/>
		<path class="st0" d="M177.6,180.3c3.1-5.5,8.8-9,13.4-9c7.3,0,9.9,3.3,9.9,11.9v20.5c0,3.7,1,3.7,2.1,3.7c0.9,0,1.1,0.6,1.1,1
			c0,1.6-1.3,1.9-2.9,1.9h-7.1c-1.1,0-2.9-0.4-2.9-1.9c0-0.4,0.2-1,1-1c1.1,0,2.2,0,2.2-3.7v-17.1c0-4.8-0.2-10.3-6.2-10.3
			c-6.5,0-10.6,6.9-10.6,14.2v13.2c0,3.7,1,3.7,2.1,3.7c0.9,0,1.1,0.6,1.1,1c0,1.6-1.3,1.9-2.9,1.9h-7.1c-1.2,0-2.9-0.4-2.9-1.9
			c0-0.4,0.2-1,1-1c1.1,0,2.2,0,2.2-3.7v-24.4c0-3.7-0.9-3.8-2.2-3.8c-0.8,0-1-0.5-1-1.1c0-1.5,1.7-1.9,2.9-1.9h5.1
			c1.6,0,1.8,1.2,1.8,3.6C177.6,177.8,177.6,179,177.6,180.3z"/>
		<path class="st0" d="M242.9,191.2h-22c0,7.4,2.5,15.9,11.2,15.9c5.1,0,7.6-2.2,9.9-5.3c0.3-0.5,0.9-1.3,1.8-1.3
			c0.8,0,1.6,0.5,1.6,1.4c0,0.8-0.1,1.1-0.4,1.6c-2.4,4.8-7.8,7.9-14.2,7.9c-9.8,0-16.8-6.8-16.8-19.5c0-13.4,6.6-20.6,16.6-20.6
			c10,0,15.3,6.8,15.3,15.6C245.8,190.5,244.2,191.2,242.9,191.2z M230.2,174.6c-7.8,0-9.3,8.2-9.3,11.7c0,1.5,0.2,1.5,1.5,1.5H236
			c2.3,0,2.6-0.5,2.6-3C238.6,180.3,236.7,174.6,230.2,174.6z"/>
		<path class="st0" d="M304.3,175.4c-1.2,0-2.1,0.6-2.9,3.7l-6.6,27.7c-0.7,2.9-1.6,4.2-3.3,4.2c-1.8,0-2.6-1.3-4-5.1l-7.9-23.2
			l-9.1,24.1c-1.2,3.3-2.3,4.2-4.1,4.2c-1.5,0-2.3-2-2.8-4.7l-5.4-25.5c-1-4.6-1.7-5.5-3.7-5.5c-0.8,0-1-0.5-1-1.1
			c0-1.5,1.6-1.9,3-1.9h7.5c1.5,0,2.9,0.4,2.9,1.9c0,0.5-0.2,1.1-1,1.1c-1.2,0-1.5,1.2-1.5,2.1c0,0.6,0.4,2.8,0.7,4.5l3.9,19.7
			l9.7-25.9c1.2-3,1.7-3.3,2.8-3.3c1.5,0,1.8,0.8,2.8,3.8l8.6,25.5l4.6-22.4c0.2-0.6,0.3-1.5,0.3-2c0-1.3-0.5-1.9-1.4-1.9
			c-0.8,0-1-0.5-1-1.1c0-1.5,1.3-1.9,2.8-1.9h4.9c1.2,0,2.6,0.4,2.6,1.9C305.5,174.9,305.2,175.4,304.3,175.4z"/>
		<path class="st0" d="M357.5,154.8c7.6,0,18.2,2.7,18.2,14.5c0,14.9-12.6,18.1-19,18.1c-4.7,0-8.3-0.4-10.5-1.3v17.7
			c0,3.5,1.3,4,2.3,4c0.8,0,1.2,0.3,1.2,0.9c0,1.5-1.8,1.6-3,1.6h-8.1c-1.2,0-3.1-0.1-3.1-1.6c0-0.6,0.3-0.9,1-0.9
			c1.2,0,2.5-0.5,2.5-4v-42.4c0-3.5-1.3-4-2.5-4c-0.7,0-1-0.3-1-0.9c0-1.5,1.9-1.6,3-1.6H357.5z M354.4,158.3c-6.6,0-8.3,0-8.3,3.6
			v17.3c0,3.3,3.2,4.6,8.7,4.6c7,0,13.1-3,13.1-12.8C368,160.8,361.7,158.3,354.4,158.3z"/>
		<path class="st0" d="M412,210.9c-3.1,0-5.4-0.3-5.4-5.1v-1.7c-2.7,3.8-6.5,7.2-13,7.2c-4.5,0-8.9-2.6-8.9-9.8
			c0-8.6,6.2-10.1,15.9-12.6c2.7-0.7,6-1.9,6-4v-5.7c0-1.7-1.5-4.4-5.8-4.4c-4.4,0-6.4,2.3-7.7,5.1c-0.8,1.6-1.5,4.3-3.3,4.3
			c-1.7,0-1.9-4.1-1.9-5.4c0-2.7,0.8-4.4,1.9-5.1c1.2-0.6,2-0.8,4.2-1.3c2.6-0.6,5.4-0.9,7.8-0.9c5.3,0,11.3,1.2,11.3,8.1v24
			c0,2.9,0.4,4,1.9,4c0.8,0,1,0.5,1,1C415.9,210.2,413.9,210.9,412,210.9z M406.6,189.6c-0.9,0.7-3.4,1.7-5.8,2.3
			c-5.8,1.6-9.4,2.9-9.4,8.9c0,2.2,0.7,6,5.1,6c5,0,8.5-3.7,10-7.4V189.6z"/>
		<path class="st0" d="M448.7,180.2c-1.9,0-2.4-3.4-5.8-3.4c-5.1,0-7.6,6.5-7.6,12.2v14.6c0,3.7,1.1,3.7,2.2,3.7c0.9,0,1,0.6,1,1
			c0,1.6-1.3,1.9-2.8,1.9h-7.2c-1.2,0-2.9-0.4-2.9-1.9c0-0.4,0.1-1,0.9-1c1.2,0,2.3,0,2.3-3.7v-24.4c0-3-0.5-3.8-2-3.8
			c-0.8,0-1.2-0.3-1.2-1c0-1.6,1.7-1.9,3-1.9h5c1.6,0,1.8,1.2,1.8,3c0,1.1-0.1,2.9-0.1,4.1c2.6-5.1,7.2-7.8,11.1-7.8
			c3.9,0,5.1,1.5,5.1,3.6C451.6,178.6,450,180.2,448.7,180.2z"/>
		<path class="st0" d="M488.5,210.9c-3.3,0-4.7-1.7-8.5-6.8c-3.7-5.1-7.3-10.9-9-12.5c-0.9,0.2-2.5,1-2.5,1v10.9
			c0,3.7,1.1,3.7,2.1,3.7c0.9,0,1.1,0.6,1.1,1c0,1.6-1.5,1.9-3,1.9h-7c-1.2,0-2.8-0.4-2.8-1.9c0-0.4,0.2-1,1-1c1.2,0,2.1,0,2.1-3.7
			v-43c0-2.8-1-3.9-2.2-3.9c-0.8,0-0.9-0.5-0.9-1c0-1.6,1.6-1.8,2.8-1.8h4.9c1.8,0,1.8,2.1,1.8,3.7v32c2.1-0.6,4.1-1.5,7.2-4.3
			c4.9-4.6,5.3-7.4,5.3-8.6c0-1-1.1-1.2-1.5-1.2c-0.9,0-1-0.5-1-1c0-1.5,1.3-1.9,3-1.9h5.8c1.1,0,2.7,0,2.7,1.7
			c0,0.9-1.2,1.5-2.5,2.9c-2.9,3.2-6.4,7.5-11.3,11.3c0.7,0.9,1.7,2.1,3.8,5c3.1,4.2,3.4,4.8,6.8,8.7c1.1,1.2,2,2.5,3.5,3.7
			c1.5,1.2,2.6,1.6,2.6,2.2C493,209.3,491.2,210.9,488.5,210.9z"/>
	</g>
	<g>
		<path class="st1" d="M174.2,248.3l-1.4-3.7h-6.2l-1.4,3.7h-2l5.5-14.5h2l5.5,14.5H174.2z M167.2,242.9h5l-2.5-6.6L167.2,242.9z"/>
		<path class="st1" d="M191.3,233.8v1.8h-4.4v12.8h-1.9v-12.8h-4.4v-1.8H191.3z"/>
		<path class="st1" d="M207.5,244.2h1.9c0.1,1.3,1.3,2.6,3.2,2.6c1.9,0,2.9-1.2,2.9-2.5c0-1.4-1.3-2-2.5-2.4l-1.9-0.5
			c-3.1-0.7-3.6-2.5-3.6-3.7c0-2.5,2.3-4.2,4.8-4.2c2.6,0,4.6,1.6,4.6,4.2h-1.9c0-1.5-1.2-2.4-2.8-2.4c-1.5,0-2.8,1-2.8,2.4
			c0,0.5,0.2,1.5,2.1,2l1.9,0.5c2.5,0.7,3.9,1.9,3.9,4c0,2.3-1.8,4.3-4.8,4.3C209.6,248.6,207.5,246.5,207.5,244.2z"/>
		<path class="st1" d="M224.5,241.1c0-4.1,3.2-7.5,7.3-7.5c4.2,0,7.4,3.4,7.4,7.5c0,4.1-3.2,7.5-7.4,7.5
			C227.7,248.6,224.5,245.2,224.5,241.1z M237.3,241.1c0-3.1-2.4-5.8-5.5-5.8c-3.1,0-5.4,2.7-5.4,5.8c0,3.1,2.4,5.7,5.4,5.7
			C234.9,246.8,237.3,244.2,237.3,241.1z"/>
		<path class="st1" d="M255.9,233.8h1.9v14.5H256l-6.7-11.1v11.1h-1.9v-14.5h1.9l6.7,11V233.8z"/>
		<path class="st1" d="M272.5,233.8c4.1,0,6.6,3.2,6.6,7.3c0,4.1-2.4,7.2-6.6,7.2h-5.6v-14.5H272.5z M272.5,246.5
			c3.1,0,4.6-2.4,4.6-5.5c0-3.1-1.6-5.5-4.6-5.5h-3.7v11H272.5z"/>
		<path class="st1" d="M289.2,246.5h6.9v1.8h-8.8v-14.5h8.6v1.8h-6.7v4.7h5.8v1.8h-5.8V246.5z"/>
		<path class="st1" d="M311.8,248.3l-3.8-5.5h-1.9v5.5h-1.9v-14.5h5.5c3.2,0,4.4,2.3,4.4,4.5c0,2.1-1.2,4.3-3.8,4.5l3.9,5.5H311.8z
			 M306.1,235.6v5.5h3c2.1,0,3-1.1,3-2.8c0-1.6-0.9-2.8-2.4-2.8H306.1z"/>
		<path class="st1" d="M321.3,244.2h1.9c0.1,1.3,1.3,2.6,3.2,2.6c1.9,0,2.9-1.2,2.9-2.5c0-1.4-1.3-2-2.5-2.4l-1.9-0.5
			c-3.1-0.7-3.6-2.5-3.6-3.7c0-2.5,2.3-4.2,4.8-4.2c2.6,0,4.6,1.6,4.6,4.2h-1.9c0-1.5-1.2-2.4-2.8-2.4c-1.5,0-2.8,1-2.8,2.4
			c0,0.5,0.2,1.5,2.1,2l1.9,0.5c2.5,0.7,3.9,1.9,3.9,4c0,2.3-1.8,4.3-4.8,4.3C323.4,248.6,321.4,246.5,321.3,244.2z"/>
	</g>
	<g>
		<circle class="st2" cx="249.3" cy="66.5" r="60.1"/>
		<circle class="st2" cx="249.4" cy="66.6" r="6.8"/>
		<circle class="st2" cx="249.3" cy="66.6" r="6.8"/>
		<circle class="st2" cx="249.3" cy="66.6" r="6.8"/>
		<circle class="st2" cx="249.3" cy="66.6" r="6.8"/>
		<circle class="st2" cx="249.3" cy="66.6" r="6.8"/>
		<g>
			<path class="st3" d="M256.1,12.2h0.6v36c0,4.1-3.3,7.4-7.4,7.4h-0.6c-3.7,0-6.7-3-6.7-6.7V26.3C241.9,18.5,248.3,12.2,256.1,12.2
				z"/>
			<path class="st3" d="M242.5,121h-0.6v-36c0-4.1,3.3-7.4,7.4-7.4h0.6c3.7,0,6.7,3,6.7,6.7v22.6C256.6,114.6,250.3,121,242.5,121z"
				/>
		</g>
		<g>
			<path class="st3" d="M282.4,22.9l0.5,0.3l-18,31.2c-2.1,3.6-6.6,4.8-10.2,2.7l-0.5-0.3c-3.2-1.9-4.3-6-2.5-9.2L263,28.1
				C267,21.3,275.6,19,282.4,22.9z"/>
			<path class="st3" d="M216.2,110.3l-0.5-0.3l18-31.2c2.1-3.6,6.6-4.8,10.2-2.7l0.5,0.3c3.2,1.9,4.3,6,2.5,9.2l-11.3,19.6
				C231.6,111.9,223,114.2,216.2,110.3z"/>
		</g>
		<g>
			<path class="st3" d="M299.8,45.3l0.3,0.5l-31.2,18c-3.6,2.1-8.1,0.8-10.2-2.7l-0.3-0.5c-1.9-3.2-0.8-7.3,2.5-9.2l19.6-11.3
				C287.2,36.2,295.9,38.5,299.8,45.3z"/>
			<path class="st3" d="M198.8,87.9l-0.3-0.5l31.2-18c3.6-2.1,8.1-0.8,10.2,2.7l0.3,0.5c1.9,3.2,0.8,7.3-2.5,9.2l-19.6,11.3
				C211.3,97,202.7,94.6,198.8,87.9z"/>
		</g>
		<g>
			<path class="st3" d="M303.7,73.4V74h-36c-4.1,0-7.4-3.3-7.4-7.4v-0.6c0-3.7,3-6.7,6.7-6.7h22.6C297.3,59.2,303.7,65.6,303.7,73.4
				z"/>
			<path class="st3" d="M194.9,59.8v-0.6h36c4.1,0,7.4,3.3,7.4,7.4v0.6c0,3.7-3,6.7-6.7,6.7h-22.6C201.2,73.9,194.9,67.6,194.9,59.8
				z"/>
		</g>
		<g>
			<path class="st3" d="M293,99.7l-0.3,0.5l-31.2-18c-3.6-2.1-4.8-6.6-2.7-10.2l0.3-0.5c1.9-3.2,6-4.3,9.2-2.5l19.6,11.3
				C294.6,84.2,296.9,92.9,293,99.7z"/>
			<path class="st3" d="M205.6,33.5l0.3-0.5l31.2,18c3.6,2.1,4.8,6.6,2.7,10.2l-0.3,0.5c-1.9,3.2-6,4.3-9.2,2.5l-19.6-11.3
				C204,48.9,201.7,40.3,205.6,33.5z"/>
		</g>
		<g>
			<path class="st3" d="M270.6,117.1l-0.5,0.3l-18-31.2c-2.1-3.6-0.8-8.1,2.7-10.2l0.5-0.3c3.2-1.9,7.3-0.8,9.2,2.5l11.3,19.6
				C279.7,104.5,277.4,113.2,270.6,117.1z"/>
			<path class="st3" d="M228,16.1l0.5-0.3l18,31.2c2.1,3.6,0.8,8.1-2.7,10.2l-0.5,0.3c-3.2,1.9-7.3,0.8-9.2-2.5l-11.3-19.6
				C218.9,28.6,221.2,20,228,16.1z"/>
		</g>
		<circle class="st4" cx="249.3" cy="66.5" r="6.8"/>
	</g>
</g>
</svg>
