<?xml version="1.0" encoding="utf-8"?>
<!-- Generator: Adobe Illustrator 24.0.3, SVG Export Plug-In . SVG Version: 6.00 Build 0)  -->
<svg version="1.1" id="Layer_1" xmlns="http://www.w3.org/2000/svg" xmlns:xlink="http://www.w3.org/1999/xlink" x="0px" y="0px"
	 viewBox="0 0 500 254" style="enable-background:new 0 0 500 254;" xml:space="preserve">
<style type="text/css">
	.st0{fill:#005470;}
	.st1{fill:#61B0BC;}
	.st2{clip-path:url(#SVGID_2_);fill:#D4C201;}
	.st3{clip-path:url(#SVGID_2_);fill:none;stroke:#FFFFFF;stroke-width:1.7277;stroke-miterlimit:10;}
	.st4{clip-path:url(#SVGID_2_);fill:#61B0BC;stroke:#FFFFFF;stroke-width:1.7277;stroke-miterlimit:10;}
</style>
<g>
	<g>
		<path class="st0" d="M18.4,205.7c0,3.6,1.4,4.1,2.8,4.1c0.8,0,1.2,0.3,1.2,1c0,1.5-1.8,1.6-3.1,1.6h-8.7c-1.3,0-3.2-0.1-3.2-1.6
			c0-0.6,0.3-1,1-1c1.2,0,2.6-0.6,2.6-4.1v-43.5c0-3.6-1.4-4.1-2.6-4.1c-0.7,0-1-0.3-1-1c0-1.5,2.2-1.6,3.1-1.6h23.9
			c1,0,3.1-0.2,4.5-0.2c2.4,0,2.4,2.1,2.4,4.6c0,2.2,0,9-1.8,9c-1.9,0-2.1-4.1-3.1-6.2c-1.4-2.8-4.5-3.6-7.7-3.6h-7.8
			c-1.8,0-2.5,0-2.5,2.6V182l11.6-0.8c2-0.2,3.3-0.3,4.5-0.3c2.2,0,2.3,1.5,2.3,2.7c0,2.5-1.9,2.5-3,2.5c-0.8,0-4.4-0.2-7.3-0.3
			l-8.2-0.5V205.7z"/>
		<path class="st0" d="M53.1,161.6c0-3.4-0.8-3.8-2.2-3.8c-0.8,0-1-0.6-1-1.1c0-1.5,1.8-1.9,3-1.9h5c1.8,0,1.8,2.2,1.8,3.7v47.1
			c0,3.8,1.1,3.8,2.2,3.8c1,0,1.1,0.6,1.1,1c0,1.6-1.4,2-3,2h-7.1c-1.3,0-3-0.4-3-2c0-0.4,0.2-1,1-1c1.2,0,2.3,0,2.3-3.8V161.6z"/>
		<path class="st0" d="M91.7,213.5c-11.6,0-18.3-8.4-18.3-20.7c0-14,8.8-20.3,17.9-20.3c11.6,0,18.2,7.4,18.2,20.6
			C109.6,206,100.8,213.5,91.7,213.5z M91.4,175.8c-7,0-10.8,4.8-10.8,15.7c0,10.8,4,18.5,11.2,18.5c6.9,0,10.8-5.5,10.8-15.9
			C102.5,182.7,98.4,175.8,91.4,175.8z"/>
		<path class="st0" d="M152.8,212.4h-5.2c-1.4,0-1.8-1.4-1.8-3.3c0-1.4,0.2-3.2,0.2-4.9c-4.5,7.4-9.3,9-13.8,9
			c-6.5,0-9.3-4.6-9.3-12.5v-20c0-3.9-1.1-4-2.1-4c-0.9,0-1.2-0.6-1.2-1.1c0-1.5,1.9-1.9,3-1.9h5.2c1.7,0,1.7,1.8,1.7,3.9v19.7
			c0,6.1,0,10.9,6.2,10.9c5.7,0,10.2-7.2,10.2-11.9v-15.6c0-3.2-0.7-4-2.2-4c-1,0-1.1-0.7-1.1-1.1c0-1.5,1.8-1.9,3.1-1.9h5.1
			c1.7,0,1.8,2,1.8,3.9v28.6c0,2.5,0.9,3.2,1.8,3.2c1.4,0,1.5,0.5,1.5,1.2C155.9,212.2,154.1,212.4,152.8,212.4z"/>
		<path class="st0" d="M189.5,181.6c-1.9,0-2.5-3.5-5.9-3.5c-5.2,0-7.8,6.6-7.8,12.5v15c0,3.8,1.1,3.8,2.2,3.8c0.9,0,1,0.6,1,1
			c0,1.6-1.4,2-2.9,2h-7.3c-1.3,0-3-0.4-3-2c0-0.4,0.1-1,1-1c1.2,0,2.3,0,2.3-3.8v-25c0-3.1-0.6-3.9-2.1-3.9c-0.8,0-1.2-0.3-1.2-1
			c0-1.6,1.8-2,3-2h5.1c1.6,0,1.8,1.3,1.8,3c0,1.1-0.1,3-0.1,4.2c2.6-5.2,7.4-8,11.4-8c4,0,5.3,1.5,5.3,3.7
			C192.4,180,190.8,181.6,189.5,181.6z"/>
		<path class="st0" d="M210,212.4h-7.2c-1.2,0-3-0.4-3-2c0-0.4,0.2-1,1-1c1,0,2.2,0,2.2-3.8v-25c0-3.2-0.6-3.9-2.2-3.9
			c-0.8,0-1-0.6-1-1.1c0-1.5,1.8-1.9,3-1.9h5.1c1.6,0,1.9,1.4,1.9,2.9c0,1.4-0.1,3.3-0.1,4.1v25c0,3.8,1,3.8,2.1,3.8
			c1,0,1.2,0.6,1.2,1C213.1,212,211.6,212.4,210,212.4z M205.7,167.5c-2.2,0-4.3-2.1-4.3-4.3c0-2.3,2.1-4.3,4.3-4.3
			c2.4,0,4.5,2,4.5,4.3C210.2,165.4,208.1,167.5,205.7,167.5z"/>
		<path class="st0" d="M237.2,213.5c-6.6,0-14.2-1.5-14.2-6.9c0-3.7,0.9-5.9,2.5-5.9c1.8,0,1.4,3,4.5,6.2c2.6,2.6,5.3,3.1,7.7,3.1
			c5.3,0,7.5-3.2,7.5-6.3c0-4.9-3.7-6.1-9.6-8.9c-8.5-4.1-11.7-6.1-11.7-12.4c0-5.8,4.4-10,12-10c5.7,0,8.7,1,11.7,2.3
			c1.2,0.4,2,1.4,2,3c0,3.4-0.9,6.4-2.8,6.4c-2.1,0-2-4.1-4.5-6.4c-1.4-1.3-3.7-1.9-5.9-1.9c-4.5,0-6.6,2.4-6.6,5.3
			c0,3.5,2.1,5.2,8.2,8.3c5.8,3,13.6,4.7,13.6,12.8C251.7,209.2,244.7,213.5,237.2,213.5z"/>
		<path class="st0" d="M295.4,212.4h-7.3c-1.1,0-3-0.4-3-2c0-0.4,0.2-1,1-1c1.1,0,2.2,0,2.2-3.8V188c0-6.5-1-10.5-6.4-10.5
			c-6.9,0-10.8,7.7-10.8,14.6v13.5c0,3.8,1,3.8,2.2,3.8c0.9,0,1.1,0.6,1.1,1c0,1.6-1.4,2-3,2h-7.3c-1.2,0-3-0.4-3-2c0-0.4,0.2-1,1-1
			c1.1,0,2.2,0,2.2-3.8v-43.9c0-3.4-0.8-3.8-2.2-3.8c-0.8,0-1-0.6-1-1.1c0-1.5,1.8-1.9,3-1.9h5c1.8,0,1.8,2.2,1.8,3.7v23.1
			c2.9-5.4,9-9.3,13.7-9.3c6.2,0,10.1,2.2,10.1,12.2v21c0,3.8,1,3.8,2.2,3.8c0.9,0,1.1,0.6,1.1,1C298.3,212,297,212.4,295.4,212.4z"
			/>
		<path class="st0" d="M353.9,155.6c7.8,0,18.7,2.8,18.7,14.8c0,15.2-12.9,18.5-19.5,18.5c-4.9,0-8.5-0.4-10.8-1.4v18.2
			c0,3.6,1.4,4.1,2.4,4.1c0.8,0,1.2,0.3,1.2,1c0,1.5-1.8,1.6-3.1,1.6h-8.3c-1.3,0-3.2-0.1-3.2-1.6c0-0.6,0.3-1,1-1
			c1.2,0,2.6-0.6,2.6-4.1v-43.5c0-3.6-1.4-4.1-2.6-4.1c-0.7,0-1-0.3-1-1c0-1.5,1.9-1.6,3-1.6H353.9z M350.8,159.1
			c-6.8,0-8.5,0-8.5,3.7v17.7c0,3.4,3.3,4.7,8.9,4.7c7.2,0,13.4-3,13.4-13.2C364.7,161.7,358.3,159.1,350.8,159.1z"/>
		<path class="st0" d="M409.9,213.1c-3.2,0-5.6-0.3-5.6-5.2v-1.8c-2.8,3.9-6.6,7.3-13.3,7.3c-4.6,0-9.1-2.7-9.1-10
			c0-8.9,6.4-10.4,16.3-12.9c2.8-0.7,6.1-1.9,6.1-4.1v-5.8c0-1.8-1.5-4.5-6-4.5c-4.5,0-6.5,2.4-7.9,5.3c-0.8,1.6-1.5,4.4-3.4,4.4
			c-1.8,0-2-4.2-2-5.5c0-2.8,0.8-4.5,2-5.2c1.3-0.6,2.1-0.8,4.3-1.4c2.6-0.6,5.6-1,8-1c5.4,0,11.6,1.3,11.6,8.3v24.6
			c0,3,0.4,4.1,1.9,4.1c0.8,0,1,0.5,1,1C413.9,212.3,411.8,213.1,409.9,213.1z M404.3,191.2c-0.9,0.7-3.5,1.8-5.9,2.4
			c-5.9,1.7-9.7,3-9.7,9.1c0,2.2,0.7,6.1,5.3,6.1c5.1,0,8.7-3.8,10.3-7.6V191.2z"/>
		<path class="st0" d="M447.4,181.6c-1.9,0-2.5-3.5-5.9-3.5c-5.2,0-7.8,6.6-7.8,12.5v15c0,3.8,1.1,3.8,2.2,3.8c0.9,0,1,0.6,1,1
			c0,1.6-1.4,2-2.9,2h-7.3c-1.3,0-3-0.4-3-2c0-0.4,0.1-1,1-1c1.2,0,2.3,0,2.3-3.8v-25c0-3.1-0.6-3.9-2.1-3.9c-0.8,0-1.2-0.3-1.2-1
			c0-1.6,1.8-2,3-2h5.1c1.6,0,1.8,1.3,1.8,3c0,1.1-0.1,3-0.1,4.2c2.6-5.2,7.4-8,11.4-8c4,0,5.3,1.5,5.3,3.7
			C450.4,180,448.8,181.6,447.4,181.6z"/>
		<path class="st0" d="M488.2,213.1c-3.4,0-4.9-1.8-8.7-6.9c-3.8-5.3-7.5-11.2-9.2-12.8c-1,0.2-2.6,1-2.6,1v11.2
			c0,3.7,1.1,3.8,2.2,3.8c0.9,0,1.1,0.6,1.1,1c0,1.6-1.5,2-3,2h-7.2c-1.2,0-2.9-0.4-2.9-2c0-0.4,0.2-1,1-1c1.2,0,2.2,0,2.2-3.7
			v-44.1c0-2.9-1-4-2.2-4c-0.8,0-0.9-0.6-0.9-1c0-1.6,1.6-1.8,2.9-1.8h5c1.8,0,1.8,2.2,1.8,3.8v32.8c2.2-0.6,4.2-1.5,7.4-4.4
			c5-4.7,5.4-7.6,5.4-8.9c0-1-1.1-1.3-1.5-1.3c-1,0-1-0.5-1-1c0-1.5,1.4-1.9,3-1.9h6c1.1,0,2.8,0,2.8,1.8c0,1-1.3,1.5-2.6,3
			c-3,3.3-6.5,7.7-11.6,11.6c0.7,1,1.8,2.2,3.9,5.1c3.2,4.3,3.5,4.9,6.9,8.9c1.1,1.3,2.1,2.6,3.6,3.8c1.5,1.2,2.6,1.7,2.6,2.2
			C492.8,211.4,491,213.1,488.2,213.1z"/>
	</g>
	<g>
		<path class="st1" d="M171.9,250.7l-1.4-3.8h-6.4l-1.4,3.8h-2.1l5.7-14.9h2.1l5.7,14.9H171.9z M164.7,245.2h5.1l-2.5-6.8
			L164.7,245.2z"/>
		<path class="st1" d="M189.4,235.8v1.8h-4.5v13.1h-2v-13.1h-4.5v-1.8H189.4z"/>
		<path class="st1" d="M206,246.5h1.9c0.1,1.3,1.3,2.7,3.3,2.7c1.9,0,3-1.3,3-2.6c0-1.4-1.3-2.1-2.6-2.4l-1.9-0.5
			c-3.2-0.8-3.6-2.6-3.6-3.8c0-2.6,2.3-4.3,4.9-4.3c2.6,0,4.7,1.7,4.7,4.3h-1.9c0-1.5-1.2-2.5-2.8-2.5c-1.5,0-2.9,1-2.9,2.5
			c0,0.5,0.2,1.6,2.2,2.1l1.9,0.5c2.5,0.7,4,2,4,4.1c0,2.3-1.9,4.5-5,4.5C208.1,251,206.1,248.8,206,246.5z"/>
		<path class="st1" d="M223.4,243.3c0-4.2,3.3-7.7,7.5-7.7c4.3,0,7.6,3.5,7.6,7.7c0,4.2-3.3,7.7-7.6,7.7
			C226.7,251,223.4,247.5,223.4,243.3z M236.6,243.3c0-3.2-2.4-5.9-5.6-5.9c-3.1,0-5.6,2.7-5.6,5.9c0,3.2,2.4,5.9,5.6,5.9
			C234.1,249.2,236.6,246.5,236.6,243.3z"/>
		<path class="st1" d="M255.6,235.8h2v14.9h-1.9l-6.9-11.3v11.3h-2v-14.9h1.9l6.8,11.3V235.8z"/>
		<path class="st1" d="M272.7,235.8c4.2,0,6.7,3.2,6.7,7.5c0,4.2-2.5,7.4-6.7,7.4h-5.8v-14.9H272.7z M272.7,248.9
			c3.1,0,4.8-2.4,4.8-5.6s-1.6-5.7-4.8-5.7h-3.8v11.3H272.7z"/>
		<path class="st1" d="M289.7,248.9h7v1.8h-9v-14.9h8.8v1.8h-6.8v4.8h6v1.8h-6V248.9z"/>
		<path class="st1" d="M312.9,250.7l-3.9-5.6h-1.9v5.6h-2v-14.9h5.6c3.2,0,4.5,2.3,4.5,4.6c0,2.2-1.2,4.5-3.9,4.6l4,5.6H312.9z
			 M307.1,237.6v5.7h3.1c2.2,0,3-1.1,3-2.8c0-1.7-1-2.8-2.5-2.8H307.1z"/>
		<path class="st1" d="M322.7,246.5h1.9c0.1,1.3,1.3,2.7,3.3,2.7c1.9,0,3-1.3,3-2.6c0-1.4-1.3-2.1-2.6-2.4l-1.9-0.5
			c-3.2-0.8-3.7-2.6-3.7-3.8c0-2.6,2.3-4.3,4.9-4.3c2.6,0,4.7,1.7,4.7,4.3h-1.9c0-1.5-1.2-2.5-2.8-2.5c-1.5,0-2.9,1-2.9,2.5
			c0,0.5,0.2,1.6,2.2,2.1l1.9,0.5c2.5,0.7,4,2,4,4.1c0,2.3-1.9,4.5-5,4.5C324.8,251,322.7,248.8,322.7,246.5z"/>
	</g>
	<g>
		<defs>
			<circle id="SVGID_1_" cx="249.9" cy="65.5" r="61.5"/>
		</defs>
		<clipPath id="SVGID_2_">
			<use xlink:href="#SVGID_1_"  style="overflow:visible;"/>
		</clipPath>
		<circle class="st2" cx="249.9" cy="65.5" r="61.5"/>
		<path class="st3" d="M273.1,83.7L273.1,83.7l-46.6-1.2c-2.2-0.1-4.1,1.7-4.1,3.9l-0.2,6c-0.1,2,1.5,3.7,3.6,3.7l33.4,0.9
			C266.6,97.2,272.9,91.3,273.1,83.7z"/>
		<path class="st3" d="M278.9,65.1L278.9,65.1l-34.7-0.4c-2.2-0.1-4.1,1.7-4.1,3.9l-0.2,6c-0.1,2,1.5,3.7,3.6,3.7l21.4,0.1
			C272.5,78.6,278.7,72.7,278.9,65.1z"/>
		<path class="st3" d="M284.8,46.5L284.8,46.5l-20.5-0.1c-2.2-0.1-4.1,1.7-4.1,3.9l-0.2,6c-0.1,2,1.5,3.7,3.6,3.7l7.2-0.2
			C278.3,60,284.6,54.1,284.8,46.5z"/>
		<path class="st3" d="M230.3,40.9L230.3,40.9l1.2,46.6c0.1,2.2-1.7,4.1-3.9,4.1l-6,0.2c-2,0.1-3.7-1.5-3.7-3.6L217,54.9
			C216.8,47.4,222.7,41.1,230.3,40.9z"/>
		<path class="st3" d="M255,101.8L255,101.8l-46.6-1.2c-2.2-0.1-4.1,1.7-4.1,3.9l-0.2,6c-0.1,2,1.5,3.7,3.6,3.7l33.4,0.9
			C248.6,115.3,254.8,109.3,255,101.8z"/>
		<path class="st3" d="M212.2,59L212.2,59l1.2,46.6c0.1,2.2-1.7,4.1-3.9,4.1l-6,0.2c-2,0.1-3.7-1.5-3.7-3.6L198.9,73
			C198.7,65.4,204.7,59.2,212.2,59z"/>
		<path class="st3" d="M248.9,35.1L248.9,35.1l0.4,34.7c0.1,2.2-1.7,4.1-3.9,4.1l-6,0.2c-2,0.1-3.7-1.5-3.7-3.6l-0.1-21.4
			C235.4,41.5,241.3,35.3,248.9,35.1z"/>
		<path class="st3" d="M267.5,29.2L267.5,29.2l0.1,20.5c0.1,2.2-1.7,4.1-3.9,4.1l-6,0.2c-2,0.1-3.7-1.5-3.7-3.6l0.2-7.2
			C254,35.7,259.9,29.4,267.5,29.2z"/>
		<circle class="st4" cx="280.6" cy="32.7" r="7.1"/>
	</g>
</g>
</svg>
