<?xml version="1.0" encoding="UTF-8"?>
<svg width="727px" height="1071px" viewBox="0 0 727 1071" version="1.1" xmlns="http://www.w3.org/2000/svg" xmlns:xlink="http://www.w3.org/1999/xlink">
    <title>identity-outline</title>
    <g id="Page-1" stroke="none" stroke-width="1" fill="none" fill-rule="evenodd">
        <g id="Artboard" transform="translate(-3927.000000, -470.000000)" stroke="#61B0BA" stroke-width="0.89">
            <path d="M3928,1539.94754 L3928,1539.94754 L3928,1053.61133 C3928,1032.91377 3944.77838,1016.13434 3965.47595,1016.13434 L4020.91717,1016.13434 C4039.57668,1016.13434 4054.70362,1031.26233 4054.70362,1049.92183 L4054.70362,1413.24392 C4054.70362,1483.21968 3997.9768,1539.94754 3928,1539.94754 Z M3933.04162,934.952899 C3933.04162,902.927011 3959.00426,876.965412 3991.03119,876.965412 C4023.05811,876.965412 4049.01971,902.927011 4049.01971,934.952899 C4049.01971,966.979826 4023.05811,992.942465 3991.03119,992.942465 C3959.00426,992.942465 3933.04162,966.979826 3933.04162,934.952899 Z M4078.23119,1457.93674 L4078.23119,1457.93674 L4078.23119,840.804168 C4078.23119,817.586309 4097.05387,798.76363 4120.27173,798.76363 L4167.03378,798.76363 C4187.96623,798.76363 4204.93585,815.733245 4204.93585,836.664654 L4204.93585,1331.23312 C4204.93585,1401.20888 4148.20903,1457.93674 4078.23119,1457.93674 Z M4083.66878,720.162758 C4083.66878,688.13687 4109.63142,662.173192 4141.65731,662.173192 C4173.68424,662.173192 4199.64687,688.13687 4199.64687,720.162758 C4199.64687,752.188646 4173.68424,778.152323 4141.65731,778.152323 C4109.63142,778.152323 4083.66878,752.188646 4083.66878,720.162758 Z M4227.75254,1402.42173 L4227.75254,1402.42173 L4227.75254,651.956919 C4227.75254,626.431824 4248.44491,605.738413 4273.97001,605.738413 L4312.78873,605.738413 C4335.80081,605.738413 4354.45616,624.393765 4354.45616,647.406883 L4354.45616,1275.71708 C4354.45616,1345.69387 4297.72934,1402.42173 4227.75254,1402.42173 Z M4232.20072,528.988526 C4232.20072,496.962638 4258.16336,471 4290.19029,471 C4322.21722,471 4348.17882,496.962638 4348.17882,528.988526 C4348.17882,561.014414 4322.21722,586.977052 4290.19029,586.977052 C4258.16336,586.977052 4232.20072,561.014414 4232.20072,528.988526 Z M4376.83531,1453.16429 L4376.83531,1453.16429 L4376.83531,966.828089 C4376.83531,946.13156 4393.61369,929.352136 4414.31126,929.352136 L4469.75247,929.352136 C4488.41198,929.352136 4503.53893,944.479081 4503.53893,963.13963 L4503.53893,1326.46171 C4503.53893,1396.43747 4446.81211,1453.16429 4376.83531,1453.16429 Z M4381.87797,848.170694 C4381.87797,816.144806 4407.83957,790.183207 4439.8665,790.183207 C4471.89342,790.183207 4497.85502,816.144806 4497.85502,848.170694 C4497.85502,880.197621 4471.89342,906.15922 4439.8665,906.15922 C4407.83957,906.15922 4381.87797,880.197621 4381.87797,848.170694 Z M4526.29534,1370.38338 L4526.29534,1370.38338 L4526.29534,753.250806 C4526.29534,730.031907 4545.11698,711.210267 4568.33588,711.210267 L4615.09794,711.210267 C4636.03038,711.210267 4653,728.179883 4653,749.111292 L4653,1243.67976 C4653,1313.65551 4596.27214,1370.38338 4526.29534,1370.38338 Z M4531.73189,632.608356 C4531.73189,600.583508 4557.69453,574.61983 4589.72146,574.61983 C4621.74735,574.61983 4647.70999,600.583508 4647.70999,632.608356 C4647.70999,664.635283 4621.74735,690.597922 4589.72146,690.597922 C4557.69453,690.597922 4531.73189,664.635283 4531.73189,632.608356 Z" id="identity-outline"></path>
        </g>
    </g>
</svg>