<?xml version="1.0" encoding="utf-8"?>
<!-- Generator: Adobe Illustrator 24.0.3, SVG Export Plug-In . SVG Version: 6.00 Build 0)  -->
<svg version="1.1" id="Layer_1" xmlns="http://www.w3.org/2000/svg" xmlns:xlink="http://www.w3.org/1999/xlink" x="0px" y="0px"
	 viewBox="0 0 500 414" style="enable-background:new 0 0 500 414;" xml:space="preserve">
<style type="text/css">
	.st0{fill:#005470;}
	.st1{fill:#61B0BC;}
	.st2{clip-path:url(#SVGID_2_);fill:#D4C201;}
	.st3{clip-path:url(#SVGID_2_);fill:none;stroke:#FFFFFF;stroke-width:2.8082;stroke-miterlimit:10;}
	.st4{clip-path:url(#SVGID_2_);fill:#61B0BC;stroke:#FFFFFF;stroke-width:2.8082;stroke-miterlimit:10;}
</style>
<g>
	<g>
		<path class="st0" d="M40,345.8c-15.2,0-30-4.2-30-16.2c0-7.5,1.9-11.7,5.5-11.7c3.2,0,2.2,6.6,7.1,14c2.7,4.3,8.2,7.9,17.4,7.9
			c12.1,0,20.1-6.1,20.1-17.7c0-8.1-5.5-12-10.5-14.9c-9.5-5.5-18.3-9-26.9-14.6c-5.6-3.8-11-9.5-11-19.2c0-14.2,11.4-23.9,29-23.9
			c4.7,0,12,0.6,18.4,3c4.9,1.8,7.9,4.8,7.9,9.5c0,6-2,13.3-5.7,13.3c-2.9,0-2.9-4.9-4.4-9c-2.2-6.1-5.6-10.8-17.5-10.8
			c-11,0-16.2,6.1-16.2,14.2c0,5.2,0.4,9.4,7.3,13.8c11.4,7.4,23.9,10.9,32.7,18.3c6.5,5.3,8.4,10.4,8.4,17.7
			C71.5,332,60.5,345.8,40,345.8z"/>
		<path class="st0" d="M118.1,345.4c-19,0-29.8-13.6-29.8-33.8c0-22.9,14.3-33.1,29.2-33.1c18.8,0,29.6,12.1,29.6,33.5
			C147.2,333.3,132.9,345.4,118.1,345.4z M117.6,284.1c-11.4,0-17.7,7.8-17.7,25.6c0,17.7,6.5,30.1,18.2,30.1
			c11.2,0,17.5-9,17.5-25.9C135.6,295.3,129,284.1,117.6,284.1z"/>
		<path class="st0" d="M179.7,293.6c5.2-9.2,14.7-15.1,22.3-15.1c12.2,0,16.5,5.6,16.5,19.9v34.2c0,6.2,1.7,6.2,3.5,6.2
			c1.4,0,1.8,1,1.8,1.7c0,2.6-2.2,3.2-4.8,3.2h-11.8c-1.8,0-4.8-0.6-4.8-3.2c0-0.6,0.4-1.7,1.7-1.7c1.8,0,3.6,0,3.6-6.2V304
			c0-8.1-0.3-17.1-10.4-17.1c-10.8,0-17.7,11.6-17.7,23.8v22c0,6.2,1.7,6.2,3.5,6.2c1.4,0,1.8,1,1.8,1.7c0,2.6-2.2,3.2-4.8,3.2
			h-11.8c-2,0-4.8-0.6-4.8-3.2c0-0.6,0.4-1.7,1.7-1.7c1.8,0,3.6,0,3.6-6.2v-40.7c0-6.1-1.6-6.4-3.6-6.4c-1.3,0-1.7-0.9-1.7-1.8
			c0-2.5,2.9-3.1,4.8-3.1h8.4c2.6,0,3,2.1,3,6C179.8,289.5,179.8,291.5,179.7,293.6z"/>
		<path class="st0" d="M294.5,333.6c0,4,1.4,5.2,2.9,5.2c2.3,0,2.5,0.8,2.5,1.9c0,2.6-2.9,3-5.1,3h-8.3c-2.6,0-2.7-3.8-2.7-10.3
			c-4.5,7.7-11,12-19.4,12c-11.6,0-24.2-7.8-24.2-32.4c0-28.7,16.8-34.6,27-34.6c5.7,0,13,1.6,16.5,7V261c0-5.6-1.3-6.2-3.6-6.2
			c-1.3,0-1.7-0.9-1.7-1.8c0-2.5,2.9-3.1,4.9-3.1h8.2c3,0,3,3.5,3,6.1V333.6z M283.7,300.7c0-12.1-7.8-16.1-15.3-16.1
			c-7.9,0-16.6,5.7-16.6,26.4c0,24.2,10.3,27.3,16.6,27.3c7.4,0,15.3-6.6,15.3-17.9V300.7z"/>
		<path class="st0" d="M365.4,311.8h-36.8c0,12.3,4.2,26.5,18.7,26.5c8.4,0,12.6-3.6,16.5-8.8c0.5-0.9,1.6-2.2,3-2.2
			c1.3,0,2.6,0.8,2.6,2.3c0,1.3-0.1,1.8-0.6,2.7c-4,8.1-13,13.1-23.8,13.1c-16.4,0-28.1-11.3-28.1-32.5c0-22.3,11-34.4,27.7-34.4
			c16.8,0,25.6,11.3,25.6,26.1C370.2,310.7,367.6,311.8,365.4,311.8z M344.2,284.1c-13,0-15.5,13.6-15.5,19.5c0,2.5,0.4,2.5,2.5,2.5
			h22.7c3.8,0,4.3-0.9,4.3-4.9C358.2,293.6,355,284.1,344.2,284.1z"/>
		<path class="st0" d="M424.9,293.4c-3.1,0-4-5.7-9.6-5.7c-8.4,0-12.7,10.8-12.7,20.4v24.4c0,6.2,1.8,6.2,3.6,6.2
			c1.4,0,1.7,1,1.7,1.7c0,2.6-2.2,3.2-4.7,3.2h-12c-2.1,0-4.8-0.6-4.8-3.2c0-0.6,0.1-1.7,1.6-1.7c1.9,0,3.8,0,3.8-6.2v-40.7
			c0-5.1-0.9-6.4-3.4-6.4c-1.3,0-1.9-0.5-1.9-1.7c0-2.6,2.9-3.2,4.9-3.2h8.3c2.6,0,3,2.1,3,4.9c0,1.8-0.1,4.8-0.1,6.9
			c4.3-8.4,12.1-13,18.6-13c6.5,0,8.6,2.5,8.6,6C429.7,290.8,427.1,293.4,424.9,293.4z"/>
		<path class="st0" d="M464.8,345.4c-10.8,0-23.1-2.5-23.1-11.2c0-6.1,1.4-9.6,4-9.6c3,0,2.2,4.9,7.3,10.1c4.3,4.3,8.6,5.1,12.6,5.1
			c8.6,0,12.2-5.2,12.2-10.3c0-7.9-6.1-9.9-15.6-14.4c-13.9-6.6-19.1-9.9-19.1-20.3c0-9.5,7.1-16.4,19.6-16.4
			c9.4,0,14.2,1.6,19.1,3.8c2,0.6,3.3,2.3,3.3,4.8c0,5.5-1.4,10.4-4.5,10.4c-3.4,0-3.2-6.6-7.3-10.4c-2.3-2.1-6-3.1-9.6-3.1
			c-7.3,0-10.8,3.9-10.8,8.6c0,5.7,3.4,8.4,13.4,13.5c9.5,4.8,22.1,7.7,22.1,20.9C488.3,338.5,477,345.4,464.8,345.4z"/>
	</g>
	<g>
		<path class="st1" d="M16,403.1h11.2v3.3H12.4v-27.4H16V403.1z"/>
		<path class="st1" d="M45,403.1h13v3.3H41.4v-27.4h16.2v3.3H45v8.9h11v3.4H45V403.1z"/>
		<path class="st1" d="M90.6,406.5l-2.7-7H76.1l-2.7,7h-3.8l10.4-27.4h3.8l10.4,27.4H90.6z M77.3,396.3h9.4L82,383.8L77.3,396.3z"/>
		<path class="st1" d="M122.2,406.5l-7.2-10.4h-3.5v10.4h-3.6v-27.4h10.3c6,0,8.3,4.3,8.3,8.6c0,4-2.3,8.2-7.2,8.6l7.3,10.3H122.2z
			 M111.4,382.4v10.4h5.7c4,0,5.6-2.1,5.6-5.2c0-3.1-1.8-5.2-4.6-5.2H111.4z"/>
		<path class="st1" d="M158.1,379.1h3.6v27.4h-3.5l-12.7-20.9v20.9h-3.6v-27.4h3.6l12.6,20.8V379.1z"/>
		<path class="st1" d="M178.9,406.5v-27.4h3.6v27.4H178.9z"/>
		<path class="st1" d="M215.8,379.1h3.6v27.4h-3.5l-12.7-20.9v20.9h-3.6v-27.4h3.6l12.6,20.8V379.1z"/>
		<path class="st1" d="M234.7,392.8c0-7.8,6.1-14.3,13.9-14.3c3.6,0,6.8,1.4,9.2,3.6l-2.5,2.4c-1.8-1.6-4.1-2.6-6.7-2.6
			c-5.8,0-10.3,5-10.3,10.9c0,5.9,4.5,10.8,10.3,10.8c4.9,0,9-3.3,9-7.7h-8v-3.1h11.9c0,9.6-5.2,14.2-13,14.2
			S234.7,400.6,234.7,392.8z"/>
		<path class="st1" d="M293.9,392.8c0-7.8,6.2-14.3,13.9-14.3c4.2,0,7.9,1.8,10.3,4.7l-2.6,2.2c-1.8-2.1-4.6-3.5-7.7-3.5
			c-5.8,0-10.3,5-10.3,10.9c0,5.9,4.5,10.8,10.3,10.8c3.1,0,5.9-1.4,7.7-3.5l2.6,2.2c-2.4,2.9-6.1,4.7-10.3,4.7
			C300.1,407,293.9,400.6,293.9,392.8z"/>
		<path class="st1" d="M336.4,403.1h13v3.3h-16.6v-27.4H349v3.3h-12.6v8.9h11v3.4h-11V403.1z"/>
		<path class="st1" d="M380.9,379.1h3.6v27.4H381l-12.7-20.9v20.9h-3.6v-27.4h3.6l12.6,20.8V379.1z"/>
		<path class="st1" d="M419,379.1v3.3h-8.4v24.1H407v-24.1h-8.4v-3.3H419z"/>
		<path class="st1" d="M436.7,403.1h13v3.3h-16.6v-27.4h16.2v3.3h-12.6v8.9h11v3.4h-11V403.1z"/>
		<path class="st1" d="M479.5,406.5l-7.2-10.4h-3.5v10.4h-3.6v-27.4h10.3c6,0,8.3,4.3,8.3,8.6c0,4-2.3,8.2-7.2,8.6l7.3,10.3H479.5z
			 M468.7,382.4v10.4h5.7c4,0,5.6-2.1,5.6-5.2c0-3.1-1.8-5.2-4.6-5.2H468.7z"/>
	</g>
	<g>
		<defs>
			<circle id="SVGID_1_" cx="253.8" cy="107.9" r="99.9"/>
		</defs>
		<clipPath id="SVGID_2_">
			<use xlink:href="#SVGID_1_"  style="overflow:visible;"/>
		</clipPath>
		<circle class="st2" cx="253.8" cy="107.9" r="99.9"/>
		<path class="st3" d="M173.2,255.8h-0.9v-92.1c0-7.1,5.8-12.9,12.9-12.9h0.9c6.4,0,11.6,5.2,11.6,11.6v68.8
			C197.7,244.9,186.7,255.8,173.2,255.8z"/>
		<circle class="st3" cx="184.9" cy="134.6" r="11.6"/>
		<path class="st3" d="M207,239.4h-0.9V120.2c0-7.1,5.8-12.9,12.9-12.9h0.9c6.4,0,11.6,5.2,11.6,11.6v95.9
			C231.5,228.4,220.5,239.4,207,239.4z"/>
		<circle class="st4" cx="218.8" cy="91.6" r="11.6"/>
		<path class="st3" d="M240.7,228.3h-0.9V81.6c0-7.1,5.8-12.9,12.9-12.9h0.9c6.4,0,11.6,5.2,11.6,11.6v123.5
			C265.2,217.3,254.2,228.3,240.7,228.3z"/>
		<circle class="st3" cx="252.3" cy="53.3" r="11.6"/>
		<path class="st3" d="M274.3,238.5h-0.9v-92.1c0-7.1,5.8-12.9,12.9-12.9h0.9c6.4,0,11.6,5.2,11.6,11.6V214
			C298.8,227.5,287.9,238.5,274.3,238.5z"/>
		<circle class="st3" cx="286.1" cy="117.2" r="11.6"/>
		<path class="st3" d="M308,221.9h-0.9V102.7c0-7.1,5.8-12.9,12.9-12.9h0.9c6.4,0,11.6,5.2,11.6,11.6v95.9
			C332.5,210.9,321.5,221.9,308,221.9z"/>
		<circle class="st3" cx="319.8" cy="74.1" r="11.6"/>
	</g>
</g>
</svg>
