<?xml version="1.0" encoding="utf-8"?>
<!-- Generator: Adobe Illustrator 24.0.3, SVG Export Plug-In . SVG Version: 6.00 Build 0)  -->
<svg version="1.1" id="Layer_1" xmlns="http://www.w3.org/2000/svg" xmlns:xlink="http://www.w3.org/1999/xlink" x="0px" y="0px"
	 viewBox="0 0 500 254" style="enable-background:new 0 0 500 254;" xml:space="preserve">
<style type="text/css">
	.st0{fill:#005470;}
	.st1{fill:#61B0BC;}
	.st2{fill:#D4C201;}
	.st3{fill:#61B0BC;stroke:#FFFFFF;stroke-width:1.7018;stroke-miterlimit:10;}
	.st4{clip-path:url(#SVGID_2_);}
	.st5{fill:none;stroke:#FFFFFF;stroke-width:1.7018;stroke-miterlimit:10;}
</style>
<g>
	<g>
		<path class="st0" d="M54.4,213.6c-9.2,0-18.2-2.5-18.2-9.9c0-4.6,1.2-7.1,3.3-7.1c2,0,1.3,4,4.3,8.5c1.7,2.6,5,4.8,10.6,4.8
			c7.3,0,12.2-3.7,12.2-10.7c0-4.9-3.3-7.3-6.4-9.1c-5.8-3.3-11.1-5.4-16.3-8.8c-3.4-2.3-6.7-5.8-6.7-11.7c0-8.6,6.9-14.5,17.6-14.5
			c2.8,0,7.3,0.4,11.2,1.8c3,1.1,4.8,2.9,4.8,5.8c0,3.6-1.2,8.1-3.5,8.1c-1.7,0-1.7-3-2.7-5.4c-1.3-3.7-3.4-6.6-10.7-6.6
			c-6.7,0-9.9,3.7-9.9,8.6c0,3.2,0.2,5.7,4.4,8.4c6.9,4.5,14.5,6.6,19.9,11.1c3.9,3.2,5.1,6.3,5.1,10.7
			C73.5,205.2,66.8,213.6,54.4,213.6z"/>
		<path class="st0" d="M113.2,192.9H90.8c0,7.5,2.5,16.1,11.4,16.1c5.1,0,7.7-2.2,10-5.4c0.3-0.6,0.9-1.3,1.8-1.3
			c0.8,0,1.6,0.5,1.6,1.4c0,0.8-0.1,1.1-0.4,1.7c-2.4,4.9-7.9,8-14.4,8c-9.9,0-17.1-6.9-17.1-19.7c0-13.6,6.7-20.9,16.8-20.9
			c10.2,0,15.6,6.9,15.6,15.9C116.1,192.3,114.5,192.9,113.2,192.9z M100.3,176.1c-7.9,0-9.4,8.3-9.4,11.8c0,1.5,0.2,1.5,1.5,1.5
			h13.8c2.3,0,2.6-0.6,2.6-3C108.8,181.8,106.9,176.1,100.3,176.1z"/>
		<path class="st0" d="M149.4,181.8c-1.9,0-2.4-3.5-5.8-3.5c-5.1,0-7.7,6.6-7.7,12.4v14.8c0,3.8,1.1,3.8,2.2,3.8c0.9,0,1,0.6,1,1
			c0,1.6-1.3,2-2.8,2h-7.3c-1.3,0-2.9-0.4-2.9-2c0-0.4,0.1-1,0.9-1c1.2,0,2.3,0,2.3-3.8v-24.7c0-3.1-0.6-3.9-2.1-3.9
			c-0.8,0-1.2-0.3-1.2-1c0-1.6,1.7-2,3-2h5.1c1.6,0,1.8,1.3,1.8,3c0,1.1-0.1,2.9-0.1,4.2c2.6-5.1,7.3-7.9,11.3-7.9
			c3.9,0,5.2,1.5,5.2,3.6C152.3,180.2,150.7,181.8,149.4,181.8z"/>
		<path class="st0" d="M189.2,192.9h-22.3c0,7.5,2.5,16.1,11.4,16.1c5.1,0,7.7-2.2,10-5.4c0.3-0.6,0.9-1.3,1.8-1.3
			c0.8,0,1.6,0.5,1.6,1.4c0,0.8-0.1,1.1-0.4,1.7c-2.4,4.9-7.9,8-14.4,8c-9.9,0-17.1-6.9-17.1-19.7c0-13.6,6.7-20.9,16.8-20.9
			c10.2,0,15.6,6.9,15.6,15.9C192.2,192.3,190.6,192.9,189.2,192.9z M176.4,176.1c-7.9,0-9.4,8.3-9.4,11.8c0,1.5,0.2,1.5,1.5,1.5
			h13.8c2.3,0,2.6-0.6,2.6-3C184.9,181.8,182.9,176.1,176.4,176.1z"/>
		<path class="st0" d="M211.8,181.8c3.2-5.6,8.9-9.2,13.6-9.2c7.4,0,10,3.4,10,12.1v20.8c0,3.8,1,3.8,2.1,3.8c0.9,0,1.1,0.6,1.1,1
			c0,1.6-1.3,2-2.9,2h-7.2c-1.1,0-2.9-0.4-2.9-2c0-0.4,0.2-1,1-1c1.1,0,2.2,0,2.2-3.8v-17.4c0-4.9-0.2-10.4-6.3-10.4
			c-6.6,0-10.7,7-10.7,14.4v13.3c0,3.8,1,3.8,2.1,3.8c0.9,0,1.1,0.6,1.1,1c0,1.6-1.3,2-2.9,2h-7.2c-1.2,0-2.9-0.4-2.9-2
			c0-0.4,0.2-1,1-1c1.1,0,2.2,0,2.2-3.8v-24.7c0-3.7-0.9-3.9-2.2-3.9c-0.8,0-1-0.6-1-1.1c0-1.5,1.7-1.9,2.9-1.9h5.1
			c1.6,0,1.8,1.3,1.8,3.6C211.9,179.4,211.9,180.6,211.8,181.8z"/>
		<path class="st0" d="M278.1,192.9h-22.3c0,7.5,2.5,16.1,11.4,16.1c5.1,0,7.7-2.2,10-5.4c0.3-0.6,0.9-1.3,1.8-1.3
			c0.8,0,1.6,0.5,1.6,1.4c0,0.8-0.1,1.1-0.4,1.7c-2.4,4.9-7.9,8-14.4,8c-9.9,0-17.1-6.9-17.1-19.7c0-13.6,6.7-20.9,16.8-20.9
			c10.2,0,15.6,6.9,15.6,15.9C281,192.3,279.4,192.9,278.1,192.9z M265.2,176.1c-7.9,0-9.4,8.3-9.4,11.8c0,1.5,0.2,1.5,1.5,1.5h13.8
			c2.3,0,2.6-0.6,2.6-3C273.7,181.8,271.8,176.1,265.2,176.1z"/>
		<path class="st0" d="M336,156c7.7,0,18.5,2.8,18.5,14.7c0,15.1-12.8,18.3-19.3,18.3c-4.8,0-8.4-0.4-10.7-1.3v18
			c0,3.6,1.3,4.1,2.4,4.1c0.8,0,1.2,0.3,1.2,0.9c0,1.5-1.8,1.6-3.1,1.6h-8.2c-1.3,0-3.2-0.1-3.2-1.6c0-0.6,0.3-0.9,1-0.9
			c1.2,0,2.5-0.6,2.5-4.1v-43c0-3.6-1.3-4.1-2.5-4.1c-0.7,0-1-0.3-1-0.9c0-1.5,1.9-1.6,3-1.6H336z M333,159.6c-6.7,0-8.4,0-8.4,3.6
			v17.5c0,3.4,3.2,4.7,8.8,4.7c7.1,0,13.3-3,13.3-13C346.7,162.1,340.3,159.6,333,159.6z"/>
		<path class="st0" d="M391.4,213c-3.2,0-5.5-0.3-5.5-5.1v-1.7c-2.8,3.9-6.6,7.3-13.2,7.3c-4.6,0-9-2.7-9-9.9
			c0-8.8,6.3-10.3,16.1-12.8c2.8-0.7,6.1-1.9,6.1-4v-5.8c0-1.7-1.5-4.5-5.9-4.5c-4.4,0-6.5,2.4-7.8,5.2c-0.8,1.6-1.5,4.3-3.3,4.3
			c-1.7,0-2-4.2-2-5.4c0-2.8,0.8-4.4,2-5.1c1.3-0.6,2.1-0.8,4.3-1.3c2.6-0.6,5.5-0.9,7.9-0.9c5.4,0,11.4,1.3,11.4,8.2v24.3
			c0,2.9,0.4,4.1,1.9,4.1c0.8,0,1,0.5,1,1C395.3,212.2,393.3,213,391.4,213z M385.9,191.3c-0.9,0.7-3.5,1.7-5.8,2.4
			c-5.8,1.7-9.6,2.9-9.6,9c0,2.2,0.7,6.1,5.2,6.1c5.1,0,8.6-3.8,10.2-7.5V191.3z"/>
		<path class="st0" d="M428.6,181.8c-1.9,0-2.4-3.5-5.8-3.5c-5.1,0-7.7,6.6-7.7,12.4v14.8c0,3.8,1.1,3.8,2.2,3.8c0.9,0,1,0.6,1,1
			c0,1.6-1.3,2-2.8,2h-7.3c-1.3,0-2.9-0.4-2.9-2c0-0.4,0.1-1,0.9-1c1.2,0,2.3,0,2.3-3.8v-24.7c0-3.1-0.6-3.9-2.1-3.9
			c-0.8,0-1.2-0.3-1.2-1c0-1.6,1.7-2,3-2h5.1c1.6,0,1.8,1.3,1.8,3c0,1.1-0.1,2.9-0.1,4.2c2.6-5.1,7.3-7.9,11.3-7.9
			c3.9,0,5.2,1.5,5.2,3.6C431.5,180.2,429.9,181.8,428.6,181.8z"/>
		<path class="st0" d="M468.9,213c-3.4,0-4.8-1.7-8.6-6.9c-3.8-5.2-7.4-11.1-9.1-12.6c-0.9,0.2-2.5,1-2.5,1v11.1
			c0,3.7,1.1,3.8,2.1,3.8c0.9,0,1.1,0.6,1.1,1c0,1.6-1.5,2-3,2h-7.1c-1.2,0-2.8-0.4-2.8-2c0-0.4,0.2-1,1-1c1.2,0,2.1,0,2.1-3.7
			v-43.7c0-2.8-1-4-2.2-4c-0.8,0-0.9-0.6-0.9-1c0-1.6,1.6-1.8,2.8-1.8h5c1.8,0,1.8,2.1,1.8,3.7v32.5c2.1-0.6,4.2-1.5,7.3-4.3
			c5-4.7,5.4-7.5,5.4-8.8c0-1-1.1-1.3-1.5-1.3c-0.9,0-1-0.5-1-1c0-1.5,1.3-1.9,3-1.9h5.9c1.1,0,2.8,0,2.8,1.7c0,0.9-1.3,1.5-2.5,2.9
			c-2.9,3.2-6.5,7.7-11.4,11.4c0.7,0.9,1.7,2.1,3.9,5.1c3.2,4.3,3.5,4.9,6.9,8.8c1.1,1.3,2.1,2.5,3.6,3.8c1.5,1.2,2.6,1.7,2.6,2.2
			C473.5,211.3,471.7,213,468.9,213z"/>
	</g>
	<g>
		<path class="st1" d="M179.5,250.4l-1.4-3.8h-6.3l-1.4,3.8h-2l5.6-14.7h2.1l5.6,14.7H179.5z M172.4,244.9h5l-2.5-6.7L172.4,244.9z"
			/>
		<path class="st1" d="M196.8,235.7v1.8h-4.5v12.9h-1.9v-12.9h-4.5v-1.8H196.8z"/>
		<path class="st1" d="M213.3,246.2h1.9c0.1,1.3,1.3,2.6,3.3,2.6c1.9,0,3-1.2,3-2.5c0-1.4-1.3-2.1-2.5-2.4l-1.9-0.5
			c-3.1-0.7-3.6-2.6-3.6-3.8c0-2.5,2.3-4.3,4.9-4.3c2.6,0,4.7,1.6,4.7,4.3H221c0-1.5-1.2-2.5-2.8-2.5c-1.5,0-2.8,1-2.8,2.4
			c0,0.5,0.2,1.5,2.1,2.1l1.9,0.5c2.5,0.7,4,1.9,4,4c0,2.3-1.9,4.4-4.9,4.4C215.4,250.7,213.3,248.5,213.3,246.2z"/>
		<path class="st1" d="M230.5,243.1c0-4.2,3.3-7.7,7.4-7.7c4.2,0,7.5,3.5,7.5,7.7c0,4.2-3.3,7.6-7.5,7.6
			C233.8,250.7,230.5,247.2,230.5,243.1z M243.5,243.1c0-3.2-2.4-5.9-5.5-5.9c-3.1,0-5.5,2.7-5.5,5.9c0,3.1,2.4,5.8,5.5,5.8
			C241.1,248.9,243.5,246.2,243.5,243.1z"/>
		<path class="st1" d="M262.4,235.7h1.9v14.7h-1.9l-6.8-11.2v11.2h-1.9v-14.7h1.9l6.8,11.2V235.7z"/>
		<path class="st1" d="M279.2,235.7c4.2,0,6.7,3.2,6.7,7.4c0,4.2-2.5,7.3-6.7,7.3h-5.7v-14.7H279.2z M279.2,248.6
			c3.1,0,4.7-2.4,4.7-5.5c0-3.1-1.6-5.6-4.7-5.6h-3.8v11.1H279.2z"/>
		<path class="st1" d="M296.1,248.6h7v1.8h-8.9v-14.7h8.7v1.8h-6.8v4.8h5.9v1.8h-5.9V248.6z"/>
		<path class="st1" d="M319.1,250.4l-3.9-5.6h-1.9v5.6h-1.9v-14.7h5.5c3.2,0,4.4,2.3,4.4,4.6c0,2.1-1.2,4.4-3.8,4.6l3.9,5.5H319.1z
			 M313.3,237.5v5.6h3.1c2.2,0,3-1.1,3-2.8c0-1.6-1-2.8-2.5-2.8H313.3z"/>
		<path class="st1" d="M328.8,246.2h1.9c0.1,1.3,1.3,2.6,3.3,2.6c1.9,0,3-1.2,3-2.5c0-1.4-1.3-2.1-2.5-2.4l-1.9-0.5
			c-3.1-0.7-3.6-2.6-3.6-3.8c0-2.5,2.3-4.3,4.9-4.3c2.6,0,4.7,1.6,4.7,4.3h-1.9c0-1.5-1.2-2.5-2.8-2.5c-1.5,0-2.8,1-2.8,2.4
			c0,0.5,0.2,1.5,2.1,2.1l1.9,0.5c2.5,0.7,4,1.9,4,4c0,2.3-1.9,4.4-4.9,4.4C330.9,250.7,328.8,248.5,328.8,246.2z"/>
	</g>
	<g>
		<circle class="st2" cx="253.4" cy="67.6" r="60.6"/>
		<circle class="st3" cx="236.3" cy="44.3" r="7.9"/>
		<g>
			<defs>
				<circle id="SVGID_1_" cx="253.4" cy="67.6" r="60.6"/>
			</defs>
			<clipPath id="SVGID_2_">
				<use xlink:href="#SVGID_1_"  style="overflow:visible;"/>
			</clipPath>
			<g class="st4">
				<path class="st5" d="M183.4,78.9L183.4,78.9L27.7,177.1c-2.6,1.7-6.1,0.9-7.7-1.8l-2.5-4c-1.5-2.4-0.8-5.5,1.6-7l143.2-90.3
					C169.4,69.6,178.9,71.7,183.4,78.9z"/>
				<path class="st5" d="M212,78.9L212,78.9L56.2,177.1c-2.6,1.7-6.1,0.9-7.7-1.8l-2.5-4c-1.5-2.4-0.8-5.5,1.6-7l143.2-90.3
					C197.9,69.6,207.4,71.7,212,78.9z"/>
				<path class="st5" d="M240.5,78.9L240.5,78.9L84.7,177.1c-2.6,1.7-6.1,0.9-7.7-1.8l-2.5-4c-1.5-2.4-0.8-5.5,1.6-7l143.2-90.3
					C226.5,69.6,236,71.7,240.5,78.9z"/>
				<path class="st5" d="M269.1,78.9L269.1,78.9l-155.8,98.2c-2.6,1.7-6.1,0.9-7.7-1.8l-2.5-4c-1.5-2.4-0.8-5.5,1.6-7l143.2-90.3
					C255,69.6,264.5,71.7,269.1,78.9z"/>
				<path class="st5" d="M297.6,78.9L297.6,78.9l-155.8,98.2c-2.6,1.7-6.1,0.9-7.7-1.8l-2.5-4c-1.5-2.4-0.8-5.5,1.6-7l143.2-90.3
					C283.6,69.6,293.1,71.7,297.6,78.9z"/>
				<path class="st5" d="M326.1,78.9L326.1,78.9l-155.8,98.2c-2.6,1.7-6.1,0.9-7.7-1.8l-2.5-4c-1.5-2.4-0.8-5.5,1.6-7l143.2-90.3
					C312.1,69.6,321.6,71.7,326.1,78.9z"/>
				<path class="st5" d="M354.7,78.9L354.7,78.9l-155.8,98.2c-2.6,1.7-6.1,0.9-7.7-1.8l-2.5-4c-1.5-2.4-0.8-5.5,1.6-7l143.2-90.3
					C340.6,69.6,350.1,71.7,354.7,78.9z"/>
				<path class="st5" d="M383.2,78.9L383.2,78.9l-155.8,98.2c-2.6,1.7-6.1,0.9-7.7-1.8l-2.5-4c-1.5-2.4-0.8-5.5,1.6-7L362,74.1
					C369.2,69.6,378.7,71.7,383.2,78.9z"/>
			</g>
			<g class="st4">
				<path class="st5" d="M183.1,88.1L183.1,88.1L27.4,186.3c-2.6,1.7-6.1,0.9-7.7-1.8l-2.5-4c-1.5-2.4-0.8-5.5,1.6-7l143.2-90.3
					C169.1,78.7,178.6,80.9,183.1,88.1z"/>
				<path class="st5" d="M211.7,88.1L211.7,88.1L55.9,186.3c-2.6,1.7-6.1,0.9-7.7-1.8l-2.5-4c-1.5-2.4-0.8-5.5,1.6-7l143.2-90.3
					C197.7,78.7,207.2,80.9,211.7,88.1z"/>
				<path class="st5" d="M240.2,88.1L240.2,88.1L84.5,186.3c-2.6,1.7-6.1,0.9-7.7-1.8l-2.5-4c-1.5-2.4-0.8-5.5,1.6-7L219,83.3
					C226.2,78.7,235.7,80.9,240.2,88.1z"/>
				<path class="st5" d="M268.8,88.1L268.8,88.1L113,186.3c-2.6,1.7-6.1,0.9-7.7-1.8l-2.5-4c-1.5-2.4-0.8-5.5,1.6-7l143.2-90.3
					C254.7,78.7,264.2,80.9,268.8,88.1z"/>
				<path class="st5" d="M297.3,88.1L297.3,88.1l-155.8,98.2c-2.6,1.7-6.1,0.9-7.7-1.8l-2.5-4c-1.5-2.4-0.8-5.5,1.6-7l143.2-90.3
					C283.3,78.7,292.8,80.9,297.3,88.1z"/>
				<path class="st5" d="M325.9,88.1L325.9,88.1l-155.8,98.2c-2.6,1.7-6.1,0.9-7.7-1.8l-2.5-4c-1.5-2.4-0.8-5.5,1.6-7l143.2-90.3
					C311.8,78.7,321.3,80.9,325.9,88.1z"/>
				<path class="st5" d="M354.4,88.1L354.4,88.1l-155.8,98.2c-2.6,1.7-6.1,0.9-7.7-1.8l-2.5-4c-1.5-2.4-0.8-5.5,1.6-7l143.2-90.3
					C340.4,78.7,349.9,80.9,354.4,88.1z"/>
				<path class="st5" d="M382.9,88.1L382.9,88.1l-155.8,98.2c-2.6,1.7-6.1,0.9-7.7-1.8l-2.5-4c-1.5-2.4-0.8-5.5,1.6-7l143.2-90.3
					C368.9,78.7,378.4,80.9,382.9,88.1z"/>
			</g>
		</g>
	</g>
</g>
</svg>
