<?xml version="1.0" encoding="utf-8"?>
<!-- Generator: Adobe Illustrator 24.0.3, SVG Export Plug-In . SVG Version: 6.00 Build 0)  -->
<svg version="1.1" id="Layer_1" xmlns="http://www.w3.org/2000/svg" xmlns:xlink="http://www.w3.org/1999/xlink" x="0px" y="0px"
	 viewBox="0 0 500 322" style="enable-background:new 0 0 500 322;" xml:space="preserve">
<style type="text/css">
	.st0{fill:#61B0BC;}
	.st1{fill:#D4C201;}
	.st2{fill:#005470;stroke:#005470;stroke-width:0.7196;stroke-miterlimit:10;}
</style>
<path class="st0" d="M201.3,147L201.3,147V83.3c0-2.7,2.2-4.9,4.9-4.9h7.3c2.4,0,4.4,2,4.4,4.4v47.6
	C217.9,139.6,210.4,147,201.3,147"/>
<path class="st1" d="M202,67.8c0-4.2,3.4-7.6,7.6-7.6c4.2,0,7.6,3.4,7.6,7.6c0,4.2-3.4,7.6-7.6,7.6C205.3,75.4,202,72,202,67.8"/>
<path class="st0" d="M221,136.2L221,136.2V55.5c0-3,2.5-5.5,5.5-5.5h6.1c2.7,0,5,2.2,5,5v64.7C237.5,128.8,230.1,136.2,221,136.2"/>
<path class="st1" d="M221.7,39.7c0-4.2,3.4-7.6,7.6-7.6c4.2,0,7.6,3.4,7.6,7.6c0,4.2-3.4,7.6-7.6,7.6
	C225.1,47.3,221.7,43.9,221.7,39.7"/>
<path class="st0" d="M240.2,129L240.2,129V30.8c0-3.3,2.7-6,6-6h5.1c3,0,5.5,2.4,5.5,5.5v82.2C256.8,121.6,249.4,129,240.2,129"/>
<path class="st1" d="M240.8,14.7c0-4.2,3.4-7.6,7.6-7.6c4.2,0,7.6,3.4,7.6,7.6c0,4.2-3.4,7.6-7.6,7.6
	C244.2,22.3,240.8,18.9,240.8,14.7"/>
<path class="st0" d="M259.9,135.6L259.9,135.6V72c0-2.7,2.2-4.9,4.9-4.9h7.3c2.4,0,4.4,2,4.4,4.4V119
	C276.5,128.2,269.1,135.6,259.9,135.6"/>
<path class="st1" d="M260.6,56.4c0-4.2,3.4-7.6,7.6-7.6c4.2,0,7.6,3.4,7.6,7.6c0,4.2-3.4,7.6-7.6,7.6C264,64,260.6,60.6,260.6,56.4"
	/>
<path class="st0" d="M279.6,124.9L279.6,124.9V44.1c0-3,2.5-5.5,5.5-5.5h6.1c2.7,0,5,2.2,5,5v64.7
	C296.2,117.5,288.8,124.9,279.6,124.9"/>
<path class="st1" d="M280.3,28.3c0-4.2,3.4-7.6,7.6-7.6c4.2,0,7.6,3.4,7.6,7.6c0,4.2-3.4,7.6-7.6,7.6
	C283.7,35.9,280.3,32.5,280.3,28.3"/>
<g>
	<path class="st2" d="M36.9,266.6c-15.5,0-30.6-4.2-30.6-16.6c0-7.7,2-11.9,5.6-11.9c3.3,0,2.3,6.8,7.3,14.3
		c2.8,4.4,8.3,8.1,17.8,8.1c12.3,0,20.5-6.2,20.5-18c0-8.2-5.6-12.2-10.7-15.2c-9.7-5.6-18.7-9.1-27.4-14.8
		C13.5,208.6,8,202.7,8,192.8c0-14.4,11.7-24.4,29.6-24.4c4.8,0,12.2,0.7,18.8,3c5,1.9,8.1,4.9,8.1,9.7c0,6.1-2,13.5-5.8,13.5
		c-2.9,0-2.9-5-4.5-9.1c-2.3-6.2-5.7-11-17.9-11c-11.3,0-16.6,6.2-16.6,14.4c0,5.3,0.4,9.5,7.4,14c11.7,7.6,24.4,11.1,33.4,18.7
		c6.6,5.4,8.6,10.6,8.6,18C69.1,252.6,57.8,266.6,36.9,266.6z"/>
	<path class="st2" d="M116.5,266.2c-19.3,0-30.3-13.9-30.3-34.5c0-23.3,14.6-33.8,29.8-33.8c19.2,0,30.2,12.3,30.2,34.2
		C146.2,253.9,131.6,266.2,116.5,266.2z M116,203.7c-11.7,0-18,8-18,26.1c0,18,6.6,30.7,18.6,30.7c11.4,0,17.9-9.1,17.9-26.4
		C134.4,215.1,127.6,203.7,116,203.7z"/>
	<path class="st2" d="M179.3,213.4c5.3-9.4,15-15.4,22.8-15.4c12.5,0,16.8,5.7,16.8,20.3v34.9c0,6.4,1.7,6.4,3.6,6.4
		c1.5,0,1.9,1.1,1.9,1.7c0,2.6-2.3,3.3-4.9,3.3h-12.1c-1.9,0-4.9-0.7-4.9-3.3c0-0.7,0.4-1.7,1.7-1.7c1.9,0,3.7,0,3.7-6.4V224
		c0-8.2-0.3-17.5-10.6-17.5c-11,0-18,11.8-18,24.3v22.4c0,6.4,1.7,6.4,3.6,6.4c1.5,0,1.9,1.1,1.9,1.7c0,2.6-2.3,3.3-4.9,3.3h-12.1
		c-2,0-4.9-0.7-4.9-3.3c0-0.7,0.4-1.7,1.7-1.7c1.9,0,3.7,0,3.7-6.4v-41.5c0-6.2-1.6-6.5-3.7-6.5c-1.3,0-1.7-0.9-1.7-1.9
		c0-2.5,2.9-3.2,4.9-3.2h8.6c2.7,0,3,2.1,3,6.1C179.4,209.2,179.4,211.2,179.3,213.4z"/>
	<path class="st2" d="M296.4,254.2c0,4.1,1.5,5.3,2.9,5.3c2.4,0,2.5,0.8,2.5,2c0,2.7-2.9,3-5.2,3h-8.5c-2.7,0-2.8-3.8-2.8-10.5
		c-4.6,7.8-11.3,12.2-19.7,12.2c-11.8,0-24.6-8-24.6-33c0-29.3,17.1-35.2,27.6-35.2c5.8,0,13.3,1.6,16.8,7.2v-25
		c0-5.7-1.3-6.4-3.7-6.4c-1.3,0-1.7-0.9-1.7-1.9c0-2.5,2.9-3.2,5-3.2h8.3c3,0,3,3.6,3,6.2V254.2z M285.4,220.6
		c0-12.3-8-16.4-15.6-16.4c-8.1,0-17,5.8-17,26.9c0,24.6,10.5,27.8,17,27.8c7.6,0,15.6-6.8,15.6-18.3V220.6z"/>
	<path class="st2" d="M368.6,231.9h-37.5c0,12.6,4.2,27,19.1,27c8.6,0,12.9-3.7,16.8-9c0.5-0.9,1.6-2.3,3-2.3c1.3,0,2.6,0.8,2.6,2.4
		c0,1.3-0.1,1.9-0.7,2.8c-4.1,8.2-13.3,13.4-24.3,13.4c-16.7,0-28.6-11.5-28.6-33.1c0-22.8,11.3-35.1,28.2-35.1
		c17.1,0,26.1,11.5,26.1,26.6C373.6,230.8,370.9,231.9,368.6,231.9z M347,203.7c-13.3,0-15.8,13.9-15.8,19.9c0,2.5,0.4,2.5,2.5,2.5
		H357c3.8,0,4.4-0.9,4.4-5C361.4,213.4,358,203.7,347,203.7z"/>
	<path class="st2" d="M429.3,213.2c-3.2,0-4.1-5.8-9.8-5.8c-8.6,0-13,11-13,20.8v24.9c0,6.4,1.9,6.4,3.7,6.4c1.5,0,1.7,1.1,1.7,1.7
		c0,2.6-2.3,3.3-4.8,3.3H395c-2.1,0-4.9-0.7-4.9-3.3c0-0.7,0.1-1.7,1.6-1.7c2,0,3.8,0,3.8-6.4v-41.5c0-5.2-0.9-6.5-3.4-6.5
		c-1.3,0-2-0.5-2-1.7c0-2.7,2.9-3.3,5-3.3h8.5c2.7,0,3,2.1,3,5c0,1.9-0.1,4.9-0.1,7c4.4-8.6,12.3-13.3,19-13.3s8.7,2.5,8.7,6.1
		C434.2,210.6,431.6,213.2,429.3,213.2z"/>
	<path class="st2" d="M470,266.2c-11,0-23.6-2.5-23.6-11.4c0-6.2,1.5-9.8,4.1-9.8c3,0,2.3,5,7.4,10.3c4.4,4.4,8.7,5.2,12.9,5.2
		c8.7,0,12.5-5.3,12.5-10.5c0-8.1-6.2-10.1-15.9-14.7c-14.2-6.8-19.5-10.1-19.5-20.7c0-9.7,7.3-16.7,20-16.7
		c9.5,0,14.4,1.6,19.5,3.8c2,0.7,3.3,2.4,3.3,4.9c0,5.6-1.5,10.6-4.6,10.6c-3.4,0-3.3-6.8-7.4-10.6c-2.4-2.1-6.1-3.2-9.8-3.2
		c-7.4,0-11,4-11,8.7c0,5.8,3.4,8.6,13.6,13.8c9.7,4.9,22.5,7.8,22.5,21.3C494,259.2,482.5,266.2,470,266.2z"/>
</g>
<g>
	<path class="st0" d="M142.1,299.9h-8v5.8h6.4v2.2h-6.4v7.7h-2.4v-17.8h10.4V299.9z"/>
	<path class="st0" d="M150.1,306.7c0-5.1,3.9-9.3,9-9.3c5.1,0,9.1,4.2,9.1,9.3c0,5.1-4,9.2-9.1,9.2
		C154,315.9,150.1,311.8,150.1,306.7z M165.8,306.7c0-3.8-2.9-7.1-6.7-7.1c-3.8,0-6.7,3.3-6.7,7.1c0,3.8,2.9,7,6.7,7
		C162.9,313.7,165.8,310.5,165.8,306.7z"/>
	<path class="st0" d="M187.5,315.6l-4.7-6.7h-2.3v6.7h-2.4v-17.8h6.7c3.9,0,5.4,2.8,5.4,5.6c0,2.6-1.5,5.3-4.7,5.6l4.7,6.7H187.5z
		 M180.5,299.9v6.8h3.7c2.6,0,3.7-1.4,3.7-3.4c0-2-1.2-3.4-3-3.4H180.5z"/>
	<path class="st0" d="M211.4,297.7v2.2h-5.4v15.7h-2.4v-15.7h-5.4v-2.2H211.4z"/>
	<path class="st0" d="M231.2,306.7c0-5.1,4-9.3,9.1-9.3c2.7,0,5.1,1.2,6.7,3l-1.7,1.5c-1.2-1.4-3-2.3-5-2.3c-3.8,0-6.7,3.3-6.7,7.1
		c0,3.8,3,7,6.7,7c2,0,3.8-0.9,5-2.3l1.7,1.5c-1.6,1.9-4,3-6.7,3C235.2,315.9,231.2,311.8,231.2,306.7z"/>
	<path class="st0" d="M255,306.7c0-5.1,3.9-9.3,9-9.3c5.1,0,9.1,4.2,9.1,9.3c0,5.1-4,9.2-9.1,9.2C259,315.9,255,311.8,255,306.7z
		 M270.8,306.7c0-3.8-2.9-7.1-6.7-7.1c-3.8,0-6.7,3.3-6.7,7.1c0,3.8,2.9,7,6.7,7C267.9,313.7,270.8,310.5,270.8,306.7z"/>
	<path class="st0" d="M285.5,313.4h7.3v2.2h-9.7v-17.8h2.4V313.4z"/>
	<path class="st0" d="M304.4,313.4h7.3v2.2H302v-17.8h2.4V313.4z"/>
	<path class="st0" d="M320.9,315.6v-17.8h2.4v17.8H320.9z"/>
	<path class="st0" d="M345,297.7h2.4v17.8H345l-8.2-13.6v13.6h-2.4v-17.8h2.3l8.2,13.5V297.7z"/>
	<path class="st0" d="M357.3,310.5h2.3c0.1,1.6,1.6,3.2,4,3.2c2.3,0,3.6-1.5,3.6-3.1c0-1.7-1.6-2.5-3.1-2.9l-2.3-0.6
		c-3.8-0.9-4.4-3.1-4.4-4.6c0-3.1,2.8-5.2,5.9-5.2c3.1,0,5.6,2,5.6,5.2h-2.3c0-1.8-1.5-3-3.4-3c-1.8,0-3.4,1.2-3.4,3
		c0,0.6,0.2,1.9,2.6,2.5l2.3,0.6c3,0.8,4.8,2.4,4.8,4.9c0,2.8-2.3,5.3-6,5.3C359.9,315.9,357.3,313.3,357.3,310.5z"/>
</g>
</svg>
