<?xml version="1.0" encoding="UTF-8"?>
<svg width="491px" height="141px" viewBox="0 0 491 141" version="1.1" xmlns="http://www.w3.org/2000/svg" xmlns:xlink="http://www.w3.org/1999/xlink">
    <title>sonderslogo-horz</title>
    <g id="Page-1" stroke="none" stroke-width="1" fill="none" fill-rule="evenodd">
        <g id="Desktop-HD" transform="translate(-379.000000, -659.000000)" fill-rule="nonzero">
            <g id="sonderslogo-horz" transform="translate(379.000000, 659.000000)">
                <g id="sonders" transform="translate(123.300000, 34.300000)" fill="#464547" stroke="#464547" stroke-width="0.541">
                    <path d="M23,73.8 C11.3,73.8 5.68434189e-14,70.6 5.68434189e-14,61.3 C5.68434189e-14,55.5 1.5,52.3 4.2,52.3 C6.7,52.3 5.9,57.4 9.7,63.1 C11.8,66.4 16,69.2 23,69.2 C32.3,69.2 38.4,64.5 38.4,55.7 C38.4,49.5 34.2,46.5 30.3,44.2 C23,40 16.3,37.3 9.7,33 C5.4,30.1 1.2,25.7 1.2,18.3 C1.2,7.4 10,0 23.4,0 C27,0 32.6,0.5 37.5,2.3 C41.3,3.7 43.6,6 43.6,9.6 C43.6,14.2 42.1,19.8 39.2,19.8 C37,19.8 37,16 35.8,12.9 C34.1,8.2 31.5,4.6 22.4,4.6 C13.9,4.6 9.9,9.3 9.9,15.5 C9.9,19.5 10.2,22.7 15.5,26.1 C24.3,31.8 33.8,34.5 40.6,40.1 C45.6,44.2 47.1,48.1 47.1,53.6 C47.2,63.2 38.8,73.8 23,73.8 Z" id="Path"></path>
                    <path d="M82.9,73.5 C68.4,73.5 60.1,63 60.1,47.6 C60.1,30.1 71.1,22.2 82.5,22.2 C96.9,22.2 105.2,31.5 105.2,47.9 C105.2,64.2 94.2,73.5 82.9,73.5 Z M82.5,26.4 C73.7,26.4 69,32.4 69,46 C69,59.5 74,69.1 82.9,69.1 C91.5,69.1 96.3,62.2 96.3,49.3 C96.3,35 91.3,26.4 82.5,26.4 Z" id="Shape"></path>
                    <path d="M130.1,33.7 C134.1,26.6 141.4,22.1 147.2,22.1 C156.6,22.1 159.9,26.4 159.9,37.3 L159.9,63.6 C159.9,68.4 161.2,68.4 162.6,68.4 C163.7,68.4 164,69.2 164,69.7 C164,71.7 162.3,72.2 160.3,72.2 L151.2,72.2 C149.8,72.2 147.5,71.7 147.5,69.7 C147.5,69.2 147.8,68.4 148.8,68.4 C150.2,68.4 151.6,68.4 151.6,63.6 L151.6,41.7 C151.6,35.5 151.4,28.5 143.6,28.5 C135.3,28.5 130.1,37.4 130.1,46.7 L130.1,63.6 C130.1,68.4 131.4,68.4 132.8,68.4 C133.9,68.4 134.2,69.2 134.2,69.7 C134.2,71.7 132.5,72.2 130.5,72.2 L121.4,72.2 C119.9,72.2 117.7,71.7 117.7,69.7 C117.7,69.2 118,68.4 119,68.4 C120.4,68.4 121.8,68.4 121.8,63.6 L121.8,32.4 C121.8,27.7 120.6,27.5 119,27.5 C118,27.5 117.7,26.8 117.7,26.1 C117.7,24.2 119.9,23.7 121.4,23.7 L127.9,23.7 C129.9,23.7 130.2,25.3 130.2,28.3 C130.2,30.6 130.2,32.1 130.1,33.7 Z" id="Path"></path>
                    <path d="M218.2,64.4 C218.2,67.5 219.3,68.4 220.4,68.4 C222.2,68.4 222.3,69 222.3,69.9 C222.3,71.9 220.1,72.2 218.4,72.2 L212,72.2 C210,72.2 209.9,69.3 209.9,64.3 C206.4,70.2 201.4,73.5 195.1,73.5 C186.2,73.5 176.6,67.5 176.6,48.7 C176.6,26.7 189.5,22.2 197.3,22.2 C201.7,22.2 207.3,23.4 210,27.6 L210,8.7 C210,4.4 209,3.9 207.2,3.9 C206.2,3.9 205.9,3.2 205.9,2.5 C205.9,0.6 208.1,0.1 209.7,0.1 L216,0.1 C218.3,0.1 218.3,2.8 218.3,4.8 L218.3,64.4 L218.2,64.4 Z M209.9,39.2 C209.9,29.9 203.9,26.8 198.1,26.8 C192,26.8 185.3,31.2 185.3,47 C185.3,65.5 193.2,67.9 198.1,67.9 C203.8,67.9 209.9,62.8 209.9,54.2 L209.9,39.2 Z" id="Shape"></path>
                    <path d="M272.5,47.7 L244.3,47.7 C244.3,57.2 247.5,68 258.6,68 C265.1,68 268.3,65.2 271.3,61.2 C271.7,60.5 272.5,59.5 273.6,59.5 C274.6,59.5 275.6,60.1 275.6,61.3 C275.6,62.3 275.5,62.7 275.1,63.4 C272,69.6 265.1,73.5 256.9,73.5 C244.3,73.5 235.4,64.8 235.4,48.6 C235.4,31.5 243.9,22.2 256.6,22.2 C269.5,22.2 276.2,30.9 276.2,42.2 C276.1,46.9 274.2,47.7 272.5,47.7 Z M256.2,26.4 C246.2,26.4 244.3,36.9 244.3,41.3 C244.3,43.2 244.6,43.2 246.2,43.2 L263.7,43.2 C266.6,43.2 267,42.5 267,39.4 C267,33.7 264.5,26.4 256.2,26.4 Z" id="Shape"></path>
                    <path d="M318.1,33.6 C315.7,33.6 315,29.2 310.7,29.2 C304.2,29.2 300.9,37.5 300.9,44.8 L300.9,63.6 C300.9,68.4 302.3,68.4 303.7,68.4 C304.8,68.4 305,69.2 305,69.7 C305,71.7 303.3,72.2 301.4,72.2 L292.2,72.2 C290.6,72.2 288.5,71.7 288.5,69.7 C288.5,69.2 288.6,68.4 289.7,68.4 C291.2,68.4 292.6,68.4 292.6,63.6 L292.6,32.4 C292.6,28.5 291.9,27.5 290,27.5 C289,27.5 288.5,27.1 288.5,26.2 C288.5,24.2 290.7,23.7 292.3,23.7 L298.7,23.7 C300.7,23.7 301,25.3 301,27.5 C301,28.9 300.9,31.2 300.9,32.8 C304.2,26.3 310.2,22.8 315.1,22.8 C320,22.8 321.7,24.7 321.7,27.4 C321.8,31.6 319.8,33.6 318.1,33.6 Z" id="Path"></path>
                    <path d="M348.7,73.5 C340.4,73.5 331,71.6 331,64.9 C331,60.2 332.1,57.5 334.1,57.5 C336.4,57.5 335.8,61.3 339.7,65.3 C343,68.6 346.3,69.2 349.4,69.2 C356,69.2 358.8,65.2 358.8,61.3 C358.8,55.2 354.1,53.7 346.8,50.2 C336.1,45.1 332.2,42.6 332.2,34.7 C332.2,27.4 337.7,22.1 347.2,22.1 C354.4,22.1 358.1,23.3 361.8,25 C363.3,25.5 364.3,26.8 364.3,28.7 C364.3,32.9 363.2,36.7 360.8,36.7 C358.2,36.7 358.3,31.6 355.2,28.7 C353.4,27.1 350.6,26.3 347.8,26.3 C342.2,26.3 339.5,29.3 339.5,32.9 C339.5,37.3 342.1,39.4 349.8,43.3 C357.1,47 366.7,49.2 366.7,59.3 C366.7,68.2 358,73.5 348.7,73.5 Z" id="Path"></path>
                </g>
                <g id="foco" transform="translate(309.100000, 126.900000)" fill="#61B0BC">
                    <polygon id="Path" points="7.8 1.9 1.8 1.9 1.8 6.3 6.6 6.3 6.6 8 1.8 8 1.8 13.8 -5.68434189e-14 13.8 -5.68434189e-14 0.4 7.8 0.4"></polygon>
                    <path d="M13.8,7 C13.8,3.2 16.8,0 20.6,0 C24.4,0 27.4,3.2 27.4,7 C27.4,10.8 24.4,13.9 20.6,13.9 C16.8,13.9 13.8,10.8 13.8,7 Z M25.7,7 C25.7,4.1 23.5,1.7 20.7,1.7 C17.9,1.7 15.7,4.2 15.7,7 C15.7,9.9 17.9,12.3 20.7,12.3 C23.5,12.2 25.7,9.8 25.7,7 Z" id="Shape"></path>
                    <path d="M42,13.7 L38.5,8.6 L36.8,8.6 L36.8,13.7 L34.9,13.7 L34.9,0.3 L39.9,0.3 C42.8,0.3 44,2.4 44,4.5 C44,6.4 42.9,8.5 40.5,8.7 L44.1,13.7 L42,13.7 L42,13.7 Z M36.7,1.9 L36.7,7 L39.5,7 C41.5,7 42.2,6 42.2,4.4 C42.2,2.9 41.3,1.8 40,1.8 L36.7,1.8 L36.7,1.9 Z" id="Shape"></path>
                    <polygon id="Path" points="59.9 0.2 59.9 1.8 55.8 1.8 55.8 13.6 54 13.6 54 1.8 49.9 1.8 49.9 0.2"></polygon>
                    <path d="M74.8,7 C74.8,3.2 77.8,0 81.6,0 C83.7,0 85.5,0.9 86.6,2.3 L85.3,3.4 C84.4,2.3 83,1.7 81.5,1.7 C78.7,1.7 76.5,4.2 76.5,7 C76.5,9.9 78.7,12.3 81.5,12.3 C83,12.3 84.4,11.6 85.3,10.6 L86.6,11.7 C85.4,13.1 83.6,14 81.6,14 C77.8,13.9 74.8,10.8 74.8,7 Z" id="Path"></path>
                    <path d="M92.7,7 C92.7,3.2 95.7,0 99.5,0 C103.3,0 106.3,3.2 106.3,7 C106.3,10.8 103.3,13.9 99.5,13.9 C95.7,13.9 92.7,10.8 92.7,7 Z M104.6,7 C104.6,4.1 102.4,1.7 99.6,1.7 C96.8,1.7 94.6,4.2 94.6,7 C94.6,9.9 96.8,12.3 99.6,12.3 C102.4,12.2 104.6,9.8 104.6,7 Z" id="Shape"></path>
                    <polygon id="Path" points="115.6 12 121.1 12 121.1 13.6 113.8 13.6 113.8 0.2 115.6 0.2"></polygon>
                    <polygon id="Path" points="129.8 12 135.3 12 135.3 13.6 128 13.6 128 0.2 129.8 0.2"></polygon>
                    <polygon id="Path" points="142.3 13.7 142.3 0.3 144.1 0.3 144.1 13.7"></polygon>
                    <polygon id="Path" points="160.3 0.2 162.1 0.2 162.1 13.6 160.4 13.6 154.2 3.4 154.2 13.6 152.4 13.6 152.4 0.2 154.2 0.2 160.4 10.4 160.4 0.2"></polygon>
                    <path d="M169.6,9.9 L171.4,9.9 C171.5,11.1 172.6,12.3 174.4,12.3 C176.1,12.3 177.1,11.2 177.1,10 C177.1,8.7 175.9,8.1 174.8,7.8 L173.1,7.4 C170.3,6.7 169.8,5 169.8,4 C169.8,1.7 171.9,0.1 174.2,0.1 C176.6,0.1 178.4,1.6 178.4,4 L176.6,4 C176.6,2.7 175.5,1.7 174,1.7 C172.7,1.7 171.4,2.6 171.4,3.9 C171.4,4.4 171.6,5.3 173.3,5.8 L175.1,6.3 C177.4,6.9 178.7,8.1 178.7,10 C178.7,12.1 177,14 174.2,14 C171.5,13.9 169.6,11.9 169.6,9.9 Z" id="Path"></path>
                </g>
                <g id="id">
                    <path d="M0,137.6 L0,137.6 L0,75 C0,72.3 2.2,70.2 4.8,70.2 L12,70.2 C14.4,70.2 16.3,72.1 16.3,74.5 L16.3,121.3 C16.3,130.3 9,137.6 0,137.6" id="Path" fill="#61B0BC"></path>
                    <path d="M0.7,59.7 C0.7,55.6 4,52.2 8.2,52.2 C12.3,52.2 15.7,55.5 15.7,59.7 C15.7,63.8 12.4,67.2 8.2,67.2 C4,67.2 0.7,63.8 0.7,59.7" id="Path" fill="#D4C201"></path>
                    <path d="M19.3,127 L19.3,127 L19.3,47.6 C19.3,44.6 21.7,42.2 24.7,42.2 L30.7,42.2 C33.4,42.2 35.6,44.4 35.6,47.1 L35.6,110.8 C35.7,119.7 28.4,127 19.3,127" id="Path" fill="#61B0BC"></path>
                    <path d="M20,32.1 C20,28 23.3,24.6 27.5,24.6 C31.6,24.6 35,27.9 35,32.1 C35,36.2 31.7,39.6 27.5,39.6 C23.4,39.5 20,36.2 20,32.1" id="Path" fill="#D4C201"></path>
                    <path d="M38.3,119.9 L38.3,119.9 L38.3,23.3 C38.3,20 41,17.4 44.2,17.4 L49.2,17.4 C52.2,17.4 54.6,19.8 54.6,22.8 L54.6,103.7 C54.6,112.6 47.3,119.9 38.3,119.9" id="Path" fill="#61B0BC"></path>
                    <path d="M38.9,7.5 C38.9,3.4 42.2,0 46.4,0 C50.5,0 53.9,3.3 53.9,7.5 C53.9,11.6 50.6,15 46.4,15 C42.2,14.9 38.9,11.6 38.9,7.5" id="Path" fill="#D4C201"></path>
                    <path d="M57.7,126.4 L57.7,126.4 L57.7,63.8 C57.7,61.1 59.9,59 62.5,59 L69.6,59 C72,59 74,60.9 74,63.3 L74,110.1 C74,119.1 66.7,126.4 57.7,126.4" id="Path" fill="#61B0BC"></path>
                    <path d="M58.3,48.5 C58.3,44.4 61.6,41 65.8,41 C69.9,41 73.3,44.3 73.3,48.5 C73.3,52.6 70,56 65.8,56 C61.7,56 58.3,52.7 58.3,48.5" id="Path" fill="#D4C201"></path>
                    <path d="M77,115.9 L77,115.9 L77,36.4 C77,33.4 79.4,31 82.4,31 L88.4,31 C91.1,31 93.3,33.2 93.3,35.9 L93.3,99.6 C93.3,108.6 86,115.9 77,115.9" id="Path" fill="#61B0BC"></path>
                    <path d="M77.7,20.9 C77.7,16.8 81,13.4 85.2,13.4 C89.3,13.4 92.7,16.7 92.7,20.9 C92.7,25 89.4,28.4 85.2,28.4 C81.1,28.4 77.7,25 77.7,20.9" id="Path" fill="#D4C201"></path>
                </g>
            </g>
        </g>
    </g>
</svg>