<?xml version="1.0" encoding="utf-8"?>
<!-- Generator: Adobe Illustrator 24.0.3, SVG Export Plug-In . SVG Version: 6.00 Build 0)  -->
<svg version="1.1" id="Layer_1" xmlns="http://www.w3.org/2000/svg" xmlns:xlink="http://www.w3.org/1999/xlink" x="0px" y="0px"
	 viewBox="0 0 183.7 250" style="enable-background:new 0 0 183.7 250;" xml:space="preserve">
<style type="text/css">
	.st0{fill:#FFFFFF;}
</style>
<path class="st0" d="M13.6,239.8L13.6,239.8l0-104.9c0-4.5,3.6-8.1,8.1-8.1h12c4,0,7.3,3.3,7.3,7.3v78.3
	C40.9,227.5,28.7,239.8,13.6,239.8z"/>
<circle class="st0" cx="27.2" cy="109.3" r="12.5"/>
<path class="st0" d="M46,222.1L46,222.1L46,89c0-5,4.1-9.1,9.1-9.1h10.1c4.5,0,8.2,3.7,8.2,8.2v106.6
	C73.3,209.8,61.1,222.1,46,222.1z"/>
<circle class="st0" cx="59.7" cy="63" r="12.5"/>
<path class="st0" d="M78.3,210.1L78.3,210.1l0-161.8c0-5.5,4.5-10,10-10h8.4c5,0,9,4,9,9v135.5C105.6,197.9,93.3,210.1,78.3,210.1z"
	/>
<circle class="st0" cx="91.7" cy="21.8" r="12.5"/>
<path class="st0" d="M110.4,221L110.4,221l0-104.9c0-4.5,3.6-8.1,8.1-8.1h12c4,0,7.3,3.3,7.3,7.3v78.3
	C137.7,208.8,125.5,221,110.4,221z"/>
<circle class="st0" cx="124" cy="90.6" r="12.5"/>
<path class="st0" d="M142.6,203.2L142.6,203.2l0-133.1c0-5,4.1-9.1,9.1-9.1h10.1c4.5,0,8.2,3.7,8.2,8.2v106.6
	C169.9,191,157.7,203.2,142.6,203.2z"/>
<circle class="st0" cx="156.3" cy="44.1" r="12.5"/>
</svg>
