<?xml version="1.0" encoding="utf-8"?>
<!-- Generator: Adobe Illustrator 24.0.3, SVG Export Plug-In . SVG Version: 6.00 Build 0)  -->
<svg version="1.1" id="Layer_1" xmlns="http://www.w3.org/2000/svg" xmlns:xlink="http://www.w3.org/1999/xlink" x="0px" y="0px"
	 viewBox="0 0 96.1 129.8" style="enable-background:new 0 0 96.1 129.8;" xml:space="preserve">
<style type="text/css">
	.st0{fill:#FFFFFF;stroke:#61B0BB;stroke-miterlimit:10;}
</style>
<path class="st0" d="M9.2,121.6L9.2,121.6l0-52c0-2.2,1.8-4,4-4h5.9c2,0,3.6,1.6,3.6,3.6v38.9C22.8,115.6,16.7,121.6,9.2,121.6z"/>
<circle class="st0" cx="16" cy="56.9" r="6.2"/>
<path class="st0" d="M25.3,112.9L25.3,112.9l0-66c0-2.5,2-4.5,4.5-4.5h5c2.2,0,4.1,1.8,4.1,4.1v52.9
	C38.8,106.8,32.8,112.9,25.3,112.9z"/>
<circle class="st0" cx="32.1" cy="33.9" r="6.2"/>
<path class="st0" d="M41.3,106.9L41.3,106.9l0-80.3c0-2.7,2.2-4.9,4.9-4.9h4.2c2.5,0,4.5,2,4.5,4.5v67.2
	C54.8,100.8,48.8,106.9,41.3,106.9z"/>
<circle class="st0" cx="48" cy="13.4" r="6.2"/>
<path class="st0" d="M57.2,112.3L57.2,112.3l0-52c0-2.2,1.8-4,4-4h5.9c2,0,3.6,1.6,3.6,3.6v38.9C70.8,106.3,64.7,112.3,57.2,112.3z"
	/>
<circle class="st0" cx="64" cy="47.6" r="6.2"/>
<path class="st0" d="M73.2,103.5L73.2,103.5l0-66c0-2.5,2-4.5,4.5-4.5h5c2.2,0,4.1,1.8,4.1,4.1v52.9
	C86.8,97.4,80.7,103.5,73.2,103.5z"/>
<circle class="st0" cx="80" cy="24.5" r="6.2"/>
</svg>
