<?xml version="1.0" encoding="UTF-8"?>
<svg width="80px" height="80px" viewBox="0 0 80 80" version="1.1" xmlns="http://www.w3.org/2000/svg" xmlns:xlink="http://www.w3.org/1999/xlink">
    <title>evernew-icon</title>
    <defs>
        <polygon id="path-1" points="0 0 79.685 0 79.685 79.684 0 79.684"></polygon>
    </defs>
    <g id="Page-1" stroke="none" stroke-width="1" fill="none" fill-rule="evenodd">
        <g id="Sonders_symbols" transform="translate(-26.000000, -2.000000)">
            <g id="evernew-icon" transform="translate(26.000000, 2.000000)">
                <g id="Group-3">
                    <mask id="mask-2" fill="white">
                        <use xlink:href="#path-1"></use>
                    </mask>
                    <g id="Clip-2"></g>
                    <path d="M-0.06,39.872 C-0.06,17.851 17.792,0 39.812,0 C61.833,0 79.685,17.851 79.685,39.872 C79.685,61.893 61.833,79.744 39.812,79.744 C17.792,79.744 -0.06,61.893 -0.06,39.872" id="Fill-1" fill="#CBBC31" mask="url(#mask-2)"></path>
                </g>
                <path d="M44.353,39.889 C44.353,42.383 42.332,44.404 39.837,44.404 C37.343,44.404 35.322,42.383 35.322,39.889 C35.322,37.395 37.343,35.373 39.837,35.373 C42.332,35.373 44.353,37.395 44.353,39.889" id="Fill-4" fill="#CBBC31"></path>
                <path d="M43.736,42.157 C42.489,44.316 39.728,45.057 37.567,43.81 C35.408,42.562 34.668,39.801 35.915,37.641 C37.162,35.481 39.923,34.741 42.084,35.988 C44.243,37.235 44.983,39.997 43.736,42.157" id="Fill-5" fill="#CBBC31"></path>
                <path d="M42.068,43.812 C39.908,45.06 37.146,44.319 35.899,42.16 C34.652,40 35.393,37.238 37.552,35.991 C39.712,34.744 42.474,35.484 43.721,37.644 C44.968,39.804 44.228,42.565 42.068,43.812" id="Fill-6" fill="#CBBC31"></path>
                <path d="M39.795,44.413 C37.301,44.413 35.28,42.391 35.28,39.896 C35.28,37.403 37.301,35.381 39.795,35.381 C42.29,35.381 44.311,37.403 44.311,39.896 C44.311,42.391 42.29,44.413 39.795,44.413" id="Fill-7" fill="#CBBC31"></path>
                <path d="M37.527,43.795 C35.368,42.549 34.627,39.787 35.875,37.627 C37.121,35.467 39.883,34.727 42.043,35.974 C44.203,37.221 44.943,39.983 43.696,42.143 C42.449,44.303 39.687,45.043 37.527,43.795" id="Fill-8" fill="#CBBC31"></path>
                <path d="M44.315,3.836 L44.696,3.836 L44.696,27.738 C44.696,30.464 42.486,32.674 39.76,32.674 L39.379,32.674 C36.921,32.674 34.928,30.682 34.928,28.224 L34.928,13.223 C34.928,8.039 39.131,3.836 44.315,3.836 Z M35.279,75.968 L34.898,75.968 L34.898,52.066 C34.898,49.339 37.108,47.129 39.834,47.129 L40.216,47.129 C42.674,47.129 44.667,49.122 44.667,51.58 L44.667,66.58 C44.667,71.765 40.464,75.968 35.279,75.968 Z M61.743,10.927 L62.073,11.118 L50.122,31.817 C48.759,34.178 45.74,34.987 43.379,33.624 L43.049,33.433 C40.92,32.204 40.191,29.482 41.42,27.353 L48.92,14.363 C51.512,9.873 57.253,8.335 61.743,10.927 Z M17.852,68.876 L17.522,68.686 L29.473,47.987 C30.835,45.625 33.855,44.816 36.216,46.18 L36.546,46.371 C38.675,47.599 39.404,50.321 38.175,52.45 L30.675,65.44 C28.082,69.931 22.342,71.469 17.852,68.876 Z M73.29,25.782 L73.48,26.112 L52.781,38.062 C50.42,39.426 47.401,38.617 46.038,36.255 L45.847,35.925 C44.619,33.797 45.348,31.075 47.476,29.846 L60.467,22.346 C64.957,19.753 70.698,21.292 73.29,25.782 Z M6.305,54.021 L6.114,53.691 L26.813,41.741 C29.174,40.378 32.193,41.187 33.557,43.548 L33.747,43.878 C34.976,46.007 34.247,48.728 32.118,49.957 L19.127,57.458 C14.638,60.05 8.897,58.512 6.305,54.021 Z M75.863,44.42 L75.863,44.801 L51.961,44.801 C49.235,44.801 47.025,42.591 47.025,39.864 L47.025,39.483 C47.025,37.025 49.017,35.033 51.476,35.033 L66.476,35.033 C71.66,35.033 75.863,39.235 75.863,44.42 Z M3.732,35.384 L3.732,35.002 L27.633,35.002 C30.359,35.002 32.57,37.213 32.57,39.939 L32.57,40.32 C32.57,42.778 30.577,44.771 28.119,44.771 L13.119,44.771 C7.935,44.771 3.732,40.568 3.732,35.384 Z M68.772,61.848 L68.582,62.178 L47.882,50.227 C45.521,48.863 44.712,45.844 46.075,43.483 L46.266,43.153 C47.495,41.024 50.217,40.295 52.345,41.524 L65.336,49.024 C69.826,51.617 71.364,57.357 68.772,61.848 Z M10.823,17.956 L11.013,17.626 L31.712,29.577 C34.073,30.94 34.882,33.959 33.519,36.32 L33.329,36.65 C32.1,38.779 29.378,39.508 27.249,38.279 L14.258,30.779 C9.769,28.187 8.23,22.446 10.823,17.956 Z M53.917,73.395 L53.587,73.585 L41.637,52.886 C40.273,50.525 41.083,47.505 43.443,46.143 L43.773,45.952 C45.902,44.723 48.624,45.452 49.853,47.581 L57.354,60.571 C59.945,65.062 58.407,70.803 53.917,73.395 Z M25.677,6.409 L26.007,6.218 L37.958,26.918 C39.321,29.279 38.512,32.298 36.151,33.661 L35.821,33.852 C33.692,35.081 30.971,34.351 29.742,32.223 L22.241,19.232 C19.649,14.742 21.187,9.001 25.677,6.409 Z" id="Stroke-9" stroke="#FFFFFE" stroke-width="1.121"></path>
                <path d="M35.872,42.127 C34.625,39.967 35.364,37.206 37.524,35.958 C39.684,34.712 42.446,35.452 43.693,37.611 C44.94,39.771 44.2,42.533 42.04,43.78 C39.88,45.027 37.119,44.287 35.872,42.127" id="Fill-11" fill="#63A8AE"></path>
                <path d="M35.872,42.127 C34.625,39.967 35.364,37.206 37.524,35.958 C39.684,34.712 42.446,35.452 43.693,37.611 C44.94,39.771 44.2,42.533 42.04,43.78 C39.88,45.027 37.119,44.287 35.872,42.127 Z" id="Stroke-12" stroke="#FFFFFE" stroke-width="1.121"></path>
            </g>
        </g>
    </g>
</svg>