<?xml version="1.0" encoding="UTF-8"?>
<svg width="80px" height="80px" viewBox="0 0 80 80" version="1.1" xmlns="http://www.w3.org/2000/svg" xmlns:xlink="http://www.w3.org/1999/xlink">
    <title>flourish-icon</title>
    <defs>
        <path d="M-1.42108547e-14,39.782 C-1.42108547e-14,17.811 17.811,0 39.782,0 C61.753,0 79.564,17.811 79.564,39.782 C79.564,61.753 61.753,79.563 39.782,79.563 C17.811,79.563 -1.42108547e-14,61.753 -1.42108547e-14,39.782" id="path-1"></path>
    </defs>
    <g id="Page-1" stroke="none" stroke-width="1" fill="none" fill-rule="evenodd">
        <g id="Sonders_symbols" transform="translate(-138.000000, -2.000000)">
            <g id="Group-31" transform="translate(138.000000, 2.000000)">
                <mask id="mask-2" fill="white">
                    <use xlink:href="#path-1"></use>
                </mask>
                <g id="Clip-27"></g>
                <path d="M-1.42108547e-14,39.782 C-1.42108547e-14,17.811 17.811,0 39.782,0 C61.753,0 79.564,17.811 79.564,39.782 C79.564,61.753 61.753,79.563 39.782,79.563 C17.811,79.563 -1.42108547e-14,61.753 -1.42108547e-14,39.782" id="Fill-26" fill="#CBBC31" mask="url(#mask-2)"></path>
                <path d="M54.809,51.585 L54.809,51.584 L24.628,50.803 C23.183,50.766 21.982,51.908 21.944,53.352 L21.846,57.223 C21.813,58.526 22.842,59.61 24.145,59.643 L45.736,60.206 C50.622,60.331 54.684,56.471 54.809,51.585 Z M58.595,39.552 L58.595,39.552 L36.156,39.274 C34.712,39.237 33.51,40.379 33.473,41.824 L33.375,45.695 C33.341,46.998 34.371,48.081 35.673,48.114 L49.523,48.174 C54.409,48.298 58.471,44.438 58.595,39.552 Z M62.382,27.519 L62.382,27.519 L49.118,27.459 C47.673,27.422 46.472,28.563 46.435,30.009 L46.337,33.88 C46.303,35.183 47.333,36.266 48.635,36.299 L53.31,36.141 C58.196,36.265 62.257,32.406 62.382,27.519 Z M27.118,23.894 L27.118,23.894 L27.9,54.075 C27.937,55.52 26.795,56.722 25.35,56.759 L21.479,56.857 C20.176,56.89 19.093,55.861 19.06,54.558 L18.497,32.967 C18.372,28.08 22.232,24.018 27.118,23.894 Z M43.128,63.266 L43.128,63.266 L12.947,62.483 C11.502,62.446 10.3,63.588 10.264,65.033 L10.165,68.904 C10.132,70.207 11.161,71.291 12.464,71.324 L34.056,71.887 C38.941,72.012 43.003,68.151 43.128,63.266 Z M15.438,35.575 L15.438,35.575 L16.219,65.756 C16.256,67.201 15.114,68.402 13.67,68.439 L9.798,68.538 C8.495,68.571 7.412,67.542 7.379,66.238 L6.816,44.647 C6.691,39.761 10.551,35.699 15.438,35.575 Z M39.15,20.107 L39.15,20.107 L39.429,42.546 C39.465,43.992 38.324,45.193 36.878,45.23 L33.007,45.328 C31.705,45.362 30.622,44.332 30.588,43.029 L30.529,29.18 C30.405,24.294 34.265,20.232 39.15,20.107 Z M51.183,16.321 L51.183,16.321 L51.244,29.584 C51.281,31.03 50.139,32.231 48.694,32.268 L44.823,32.367 C43.52,32.4 42.437,31.37 42.404,30.067 L42.562,25.393 C42.437,20.507 46.297,16.445 51.183,16.321 Z" id="Stroke-28" stroke="#FFFFFE" stroke-width="1.118" mask="url(#mask-2)"></path>
                <path d="M55.69,20.851 C54.422,18.655 55.174,15.847 57.371,14.578 C59.567,13.31 62.376,14.063 63.644,16.259 C64.912,18.455 64.159,21.264 61.963,22.532 C59.767,23.8 56.958,23.048 55.69,20.851" id="Fill-29" fill="#63A8AE" mask="url(#mask-2)"></path>
                <path d="M55.69,20.851 C54.422,18.655 55.174,15.847 57.371,14.578 C59.567,13.31 62.376,14.063 63.644,16.259 C64.912,18.455 64.159,21.264 61.963,22.532 C59.767,23.8 56.958,23.048 55.69,20.851 Z" id="Stroke-30" stroke="#FFFFFE" stroke-width="1.118" mask="url(#mask-2)"></path>
            </g>
        </g>
    </g>
</svg>