<?xml version="1.0" encoding="UTF-8"?>
<svg width="568px" height="568px" viewBox="0 0 568 568" version="1.1" xmlns="http://www.w3.org/2000/svg" xmlns:xlink="http://www.w3.org/1999/xlink">
    <title>flourish-outline</title>
    <g id="Page-1" stroke="none" stroke-width="1" fill="none" fill-rule="evenodd">
        <g id="Artboard" transform="translate(-69.000000, -85.000000)" stroke="#D3C328" stroke-width="8.022">
            <path d="M540.314509,452.570848 L540.314509,452.570848 L246.455509,445.012848 C232.385509,444.657848 220.687509,455.691848 220.329509,469.656848 L219.368509,507.064848 C219.046509,519.656848 229.066509,530.122848 241.753509,530.443848 L451.981509,535.884848 C499.554509,537.089848 539.103509,499.787848 540.314509,452.570848 Z M577.184509,336.290848 L577.184509,336.290848 L358.705509,333.603848 C344.634509,333.247848 332.937509,344.280848 332.578509,358.246848 L331.617509,395.656848 C331.295509,408.246848 341.317509,418.713848 354.002509,419.034848 L488.850509,419.606848 C536.423509,420.808848 575.972509,383.507848 577.184509,336.290848 Z M614.054509,220.011848 L614.054509,220.011848 L484.910509,219.424848 C470.840509,219.068848 459.141509,230.103848 458.783509,244.067848 L457.822509,281.476848 C457.500509,294.067848 467.521509,304.534848 480.207509,304.855848 L525.719509,303.327848 C573.293509,304.530848 612.841509,267.228848 614.054509,220.011848 Z M270.701509,184.977848 L270.701509,184.977848 L278.317509,476.635848 C278.673509,490.601848 267.558509,502.210848 253.488509,502.566848 L215.796509,503.519848 C203.111509,503.839848 192.564509,493.893848 192.241509,481.302848 L186.758509,272.649848 C185.547509,225.431848 223.129509,186.179848 270.701509,184.977848 Z M426.584509,565.448848 L426.584509,565.448848 L132.726509,557.892848 C118.654509,557.535848 106.957509,568.568848 106.599509,582.534848 L105.638509,619.945848 C105.314509,632.535848 115.335509,643.002848 128.021509,643.322848 L338.251509,648.764848 C385.822509,649.966848 425.372509,612.665848 426.584509,565.448848 Z M156.973509,297.856848 L156.973509,297.856848 L164.585509,589.513848 C164.945509,603.479848 153.828509,615.089848 139.756509,615.445848 L102.064509,616.399848 C89.3805089,616.720848 78.8335089,606.773848 78.5115089,594.182848 L73.0285089,385.528848 C71.8165089,338.312848 109.399509,299.060848 156.973509,297.856848 Z M387.860509,148.383848 L387.860509,148.383848 L390.566509,365.225848 C390.924509,379.191848 379.809509,390.802848 365.737509,391.157848 L328.046509,392.111848 C315.360509,392.431848 304.814509,382.484848 304.490509,369.893848 L303.915509,236.056848 C302.704509,188.840848 340.286509,149.586848 387.860509,148.383848 Z M505.015509,111.789848 L505.015509,111.789848 L505.607509,239.966848 C505.965509,253.931848 494.848509,265.541848 480.778509,265.898848 L443.087509,266.851848 C430.401509,267.172848 419.856509,257.225848 419.531509,244.634848 L421.070509,199.463848 C419.859509,152.245848 457.441509,112.993848 505.015509,111.789848 Z M548.894509,155.572848 C536.548509,134.347848 543.876509,107.206848 565.261509,94.9528482 C586.647509,82.6978482 613.991509,89.9718482 626.337509,111.195848 C638.685509,132.421848 631.357509,159.560848 609.973509,171.815848 C588.587509,184.069848 561.242509,176.797848 548.894509,155.572848 Z" id="flourish-outline"></path>
        </g>
    </g>
</svg>