<?xml version="1.0" encoding="UTF-8"?>
<svg width="725px" height="627px" viewBox="0 0 725 627" version="1.1" xmlns="http://www.w3.org/2000/svg" xmlns:xlink="http://www.w3.org/1999/xlink">
    <title>serene-outline</title>
    <defs>
        <rect id="path-1" x="0" y="0" width="725" height="627"></rect>
    </defs>
    <g id="Page-1" stroke="none" stroke-width="1" fill="none" fill-rule="evenodd">
        <g id="Artboard" transform="translate(-837.000000, -89.000000)">
            <g id="serene-outline" transform="translate(837.000000, 89.000000)">
                <mask id="mask-2" fill="white">
                    <use xlink:href="#path-1"></use>
                </mask>
                <g id="Mask"></g>
                <path d="M-422.964055,99.8076414 L-422.964055,99.8076414 L-1303.98605,657.773641 C-1318.81605,667.164641 -1338.41605,662.702641 -1347.76405,647.805641 L-1361.98105,625.150641 C-1370.40805,611.720641 -1366.40305,593.970641 -1353.03405,585.503641 L-542.975055,72.4786414 C-502.323055,46.7336414 -448.593055,58.9686414 -422.964055,99.8076414 Z M-261.523055,99.8076414 L-261.523055,99.8076414 L-1142.54805,657.773641 C-1157.37705,667.164641 -1176.97605,662.702641 -1186.32405,647.805641 L-1200.54105,625.150641 C-1208.96905,611.720641 -1204.96405,593.970641 -1191.59605,585.503641 L-381.535055,72.4786414 C-340.883055,46.7336414 -287.152055,58.9686414 -261.523055,99.8076414 Z M-100.084055,99.8076414 L-100.084055,99.8076414 L-981.110055,657.773641 C-995.937055,667.164641 -1015.53505,662.702641 -1024.88605,647.805641 L-1039.10305,625.150641 C-1047.52905,611.720641 -1043.52505,593.970641 -1030.15505,585.503641 L-220.096055,72.4786414 C-179.443055,46.7336414 -125.712055,58.9686414 -100.084055,99.8076414 Z M61.3539452,99.8076414 L61.3539452,99.8076414 L-819.669055,657.773641 C-834.497055,667.164641 -854.097055,662.702641 -863.444055,647.805641 L-877.662055,625.150641 C-886.091055,611.720641 -882.086055,593.970641 -868.716055,585.503641 L-58.6560548,72.4786414 C-18.0040548,46.7336414 35.7259452,58.9686414 61.3539452,99.8076414 Z M222.793945,99.8076414 L222.793945,99.8076414 L-658.229055,657.773641 C-673.058055,667.164641 -692.658055,662.702641 -702.006055,647.805641 L-716.223055,625.150641 C-724.651055,611.720641 -720.645055,593.970641 -707.276055,585.503641 L102.782945,72.4786414 C143.433945,46.7336414 197.164945,58.9686414 222.793945,99.8076414 Z M384.234945,99.8076414 L384.234945,99.8076414 L-496.790055,657.773641 C-511.619055,667.164641 -531.218055,662.702641 -540.567055,647.805641 L-554.783055,625.150641 C-563.211055,611.720641 -559.206055,593.970641 -545.838055,585.503641 L264.222945,72.4786414 C304.874945,46.7336414 358.606945,58.9686414 384.234945,99.8076414 Z M545.673945,99.8076414 L545.673945,99.8076414 L-335.350055,657.773641 C-350.179055,667.164641 -369.777055,662.702641 -379.127055,647.805641 L-393.344055,625.150641 C-401.772055,611.720641 -397.767055,593.970641 -384.398055,585.503641 L425.661945,72.4786414 C466.313945,46.7336414 520.045945,58.9686414 545.673945,99.8076414 Z M707.111945,99.8076414 L707.111945,99.8076414 L-173.911055,657.773641 C-188.739055,667.164641 -208.339055,662.702641 -217.687055,647.805641 L-231.903055,625.150641 C-240.333055,611.720641 -236.327055,593.970641 -222.958055,585.503641 L587.100945,72.4786414 C627.753945,46.7336414 681.483945,58.9686414 707.111945,99.8076414 Z M-424.570055,151.943641 L-424.570055,151.943641 L-1305.59405,709.910641 C-1320.42205,719.301641 -1340.02205,714.838641 -1349.36905,699.941641 L-1363.58605,677.287641 C-1372.01605,663.858641 -1368.01105,646.106641 -1354.64105,637.639641 L-544.581055,124.616641 C-503.930055,98.8706414 -450.198055,111.105641 -424.570055,151.943641 Z M-263.130055,151.943641 L-263.130055,151.943641 L-1144.15305,709.910641 C-1158.98405,719.301641 -1178.58305,714.838641 -1187.93105,699.941641 L-1202.14805,677.287641 C-1210.57605,663.858641 -1206.5601,646.106641 -1193.20205,637.639641 L-383.143055,124.616641 C-342.490055,98.8706414 -288.760055,111.105641 -263.130055,151.943641 Z M-101.690055,151.943641 L-101.690055,151.943641 L-982.715055,709.910641 C-997.543055,719.301641 -1017.14305,714.838641 -1026.49205,699.941641 L-1040.70905,677.287641 C-1049.13605,663.858641 -1045.13105,646.106641 -1031.76305,637.639641 L-221.702055,124.616641 C-181.051055,98.8706414 -127.318055,111.105641 -101.690055,151.943641 Z M59.7489452,151.943641 L59.7489452,151.943641 L-821.275055,709.910641 C-836.105055,719.301641 -855.703055,714.838641 -865.052055,699.941641 L-879.269055,677.287641 C-887.697055,663.858641 -883.693055,646.106641 -870.323055,637.639641 L-60.2640548,124.616641 C-19.6100548,98.8706414 34.1209452,111.105641 59.7489452,151.943641 Z M221.186945,151.943641 L221.186945,151.943641 L-659.836055,709.910641 C-674.664055,719.301641 -694.264055,714.838641 -703.611055,699.941641 L-717.828055,677.287641 C-726.258055,663.858641 -722.252055,646.106641 -708.883055,637.639641 L101.176945,124.616641 C141.827945,98.8706414 195.558945,111.105641 221.186945,151.943641 Z M382.627945,151.943641 L382.627945,151.943641 L-498.396055,709.910641 C-513.226055,719.301641 -532.825055,714.838641 -542.173055,699.941641 L-556.390055,677.287641 C-564.817055,663.858641 -560.812055,646.106641 -547.444055,637.639641 L262.616945,124.616641 C303.267945,98.8706414 356.999945,111.105641 382.627945,151.943641 Z M544.067945,151.943641 L544.067945,151.943641 L-336.957055,709.910641 C-351.785055,719.301641 -371.384055,714.838641 -380.735055,699.941641 L-394.951055,677.287641 C-403.378055,663.858641 -399.373055,646.106641 -386.004055,637.639641 L424.055945,124.616641 C464.708945,98.8706414 518.439945,111.105641 544.067945,151.943641 Z M705.506945,151.943641 L705.506945,151.943641 L-175.517055,709.910641 C-190.347055,719.301641 -209.945055,714.838641 -219.294055,699.941641 L-233.511055,677.287641 C-241.940055,663.858641 -237.935055,646.106641 -224.564055,637.639641 L585.493945,124.616641 C626.146945,98.8706414 679.878945,111.105641 705.506945,151.943641 Z" id="Stroke-1" stroke="#D3C328" stroke-width="7.414" mask="url(#mask-2)"></path>
            </g>
        </g>
    </g>
</svg>