<?xml version="1.0" encoding="UTF-8"?>
<svg width="80px" height="80px" viewBox="0 0 80 80" version="1.1" xmlns="http://www.w3.org/2000/svg" xmlns:xlink="http://www.w3.org/1999/xlink">
    <title>serene-icon</title>
    <defs>
        <path d="M67.57625,11.59425 C83.03425,27.05325 83.03425,52.11625 67.57625,67.57525 C52.11725,83.03425 27.05325,83.03425 11.59425,67.57525 C-3.86475,52.11625 -3.86475,27.05325 11.59425,11.59425 C27.05325,-3.86475 52.11725,-3.86475 67.57625,11.59425 Z" id="path-1"></path>
    </defs>
    <g id="Page-1" stroke="none" stroke-width="1" fill="none" fill-rule="evenodd">
        <g id="Sonders_symbols" transform="translate(-472.000000, -2.000000)">
            <g id="serene-icon" transform="translate(472.000000, 2.000000)">
                <path d="M11.59425,67.57525 C-3.86475,52.11625 -3.86475,27.05325 11.59425,11.59425 C27.05325,-3.86475 52.11725,-3.86475 67.57625,11.59425 C83.03425,27.05325 83.03425,52.11625 67.57625,67.57525 C52.11725,83.03425 27.05325,83.03425 11.59425,67.57525" id="Fill-13" fill="#CBBC31"></path>
                <path d="M23.25725,24.41125 C23.25725,21.55925 25.56925,19.24825 28.42025,19.24825 C31.27225,19.24825 33.58425,21.55925 33.58425,24.41125 C33.58425,27.26325 31.27225,29.57425 28.42025,29.57425 C25.56925,29.57425 23.25725,27.26325 23.25725,24.41125" id="Fill-15" fill="#63A8AE"></path>
                <path d="M23.25725,24.41125 C23.25725,21.55925 25.56925,19.24825 28.42025,19.24825 C31.27225,19.24825 33.58425,21.55925 33.58425,24.41125 C33.58425,27.26325 31.27225,29.57425 28.42025,29.57425 C25.56925,29.57425 23.25725,27.26325 23.25725,24.41125 Z" id="Stroke-16" stroke="#FFFFFE" stroke-width="1.112"></path>
                <g id="Group-19">
                    <mask id="mask-2" fill="white">
                        <use xlink:href="#path-1"></use>
                    </mask>
                    <g id="Clip-18"></g>
                    <path d="M12.48725,46.99825 L12.48725,46.99825 L-89.33375,111.18825 C-91.04775,112.26925 -93.31275,111.75625 -94.39375,110.04225 L-96.03675,107.43525 C-97.01075,105.89025 -96.54775,103.84825 -95.00275,102.87525 L-1.38275,43.85425 C3.31525,40.89225 9.52525,42.30025 12.48725,46.99825 Z M31.14525,46.99825 L31.14525,46.99825 L-70.67575,111.18825 C-72.38975,112.26925 -74.65475,111.75625 -75.73575,110.04225 L-77.37875,107.43525 C-78.35275,105.89025 -77.88975,103.84825 -76.34475,102.87525 L17.27525,43.85425 C21.97425,40.89225 28.18325,42.30025 31.14525,46.99825 Z M49.80325,46.99825 L49.80325,46.99825 L-52.01875,111.18825 C-53.73175,112.26925 -55.99775,111.75625 -57.07775,110.04225 L-58.72075,107.43525 C-59.69475,105.89025 -59.23175,103.84825 -57.68675,102.87525 L35.93325,43.85425 C40.63125,40.89225 46.84125,42.30025 49.80325,46.99825 Z M68.46125,46.99825 L68.46125,46.99825 L-33.36075,111.18825 C-35.07475,112.26925 -37.33975,111.75625 -38.41975,110.04225 L-40.06275,107.43525 C-41.03675,105.89025 -40.57375,103.84825 -39.02875,102.87525 L54.59125,43.85425 C59.28925,40.89225 65.49925,42.30025 68.46125,46.99825 Z M87.11925,46.99825 L87.11925,46.99825 L-14.70275,111.18825 C-16.41575,112.26925 -18.68175,111.75625 -19.76175,110.04225 L-21.40475,107.43525 C-22.37875,105.89025 -21.9146944,103.84825 -20.37175,102.87525 L73.24925,43.85425 C77.94725,40.89225 84.15725,42.30025 87.11925,46.99825 Z M105.77625,46.99825 L105.77625,46.99825 L3.95525,111.18825 C2.24125,112.26925 -0.02375,111.75625 -1.10375,110.04225 L-2.74775,107.43525 C-3.72175,105.89025 -3.25875,103.84825 -1.71275,102.87525 L91.90725,43.85425 C96.60525,40.89225 102.81425,42.30025 105.77625,46.99825 Z M124.43525,46.99825 L124.43525,46.99825 L22.61325,111.18825 C20.89925,112.26925 18.63425,111.75625 17.55425,110.04225 L15.91125,107.43525 C14.93725,105.89025 15.39925,103.84825 16.94425,102.87525 L110.56425,43.85425 C115.26325,40.89225 121.47325,42.30025 124.43525,46.99825 Z M12.30225,52.99625 L12.30225,52.99625 L-89.51975,117.18625 C-91.23375,118.26725 -93.49875,117.75425 -94.57875,116.04025 L-96.22175,113.43325 C-97.19575,111.88925 -96.73275,109.84725 -95.18775,108.87325 L-1.56775,49.85225 C3.13025,46.89025 9.34025,48.29825 12.30225,52.99625 Z M30.95925,52.99625 L30.95925,52.99625 L-70.86175,117.18625 C-72.57575,118.26725 -74.84075,117.75425 -75.92075,116.04025 L-77.56375,113.43325 C-78.53875,111.88925 -78.07575,109.84725 -76.53075,108.87325 L17.08925,49.85225 C21.78825,46.89025 27.99825,48.29825 30.95925,52.99625 Z M49.61725,52.99625 L49.61725,52.99625 L-52.20375,117.18625 C-53.91775,118.26725 -56.18275,117.75425 -57.26375,116.04025 L-58.90675,113.43325 C-59.88075,111.88925 -59.41775,109.84725 -57.87275,108.87325 L35.74825,49.85225 C40.44625,46.89025 46.65525,48.29825 49.61725,52.99625 Z M68.27525,52.99625 L68.27525,52.99625 L-33.54575,117.18625 C-35.25975,118.26725 -37.52475,117.75425 -38.60575,116.04025 L-40.24875,113.43325 C-41.22275,111.88925 -40.75975,109.84725 -39.21475,108.87325 L54.40525,49.85225 C59.10425,46.89025 65.31325,48.29825 68.27525,52.99625 Z M86.93325,52.99625 L86.93325,52.99625 L-14.88875,117.18625 C-16.60175,118.26725 -18.86775,117.75425 -19.94775,116.04025 L-21.59075,113.43325 C-22.56475,111.88925 -22.10175,109.84725 -20.55675,108.87325 L73.06325,49.85225 C77.76125,46.89025 83.97125,48.29825 86.93325,52.99625 Z M105.59125,52.99625 L105.59125,52.99625 L3.77025,117.18625 C2.05625,118.26725 -0.20875,117.75425 -1.28975,116.04025 L-2.93275,113.43325 C-3.90675,111.88925 -3.44375,109.84725 -1.89875,108.87325 L91.72125,49.85225 C96.41925,46.89025 102.62925,48.29825 105.59125,52.99625 Z M124.24925,52.99625 L124.24925,52.99625 L22.42725,117.18625 C20.71325,118.26725 18.44825,117.75425 17.36825,116.04025 L15.72525,113.43325 C14.75125,111.88925 15.21425,109.84725 16.75925,108.87325 L110.37925,49.85225 C115.07725,46.89025 121.28725,48.29825 124.24925,52.99625 Z" id="Stroke-17" stroke="#FFFFFE" stroke-width="1.112" mask="url(#mask-2)"></path>
                </g>
            </g>
        </g>
    </g>
</svg>