<?xml version="1.0" encoding="UTF-8"?>
<svg width="1025px" height="1047px" viewBox="0 0 1025 1047" version="1.1" xmlns="http://www.w3.org/2000/svg" xmlns:xlink="http://www.w3.org/1999/xlink">
    <title>trails-outline</title>
    <g id="Page-1" stroke="none" stroke-width="1" fill="none" fill-rule="evenodd">
        <g id="Artboard" transform="translate(-1706.000000, -125.000000)">
            <g id="trails-outline" transform="translate(1710.000000, 129.000000)">
                <path d="M613.25935,460.658917 L613.25935,460.658917 L613.71735,209.652724 C613.74435,197.629724 623.50935,187.910724 635.52735,187.937668 L667.72535,188.006724 C678.56235,188.034724 687.32735,196.837724 687.300412,207.673724 L687.00835,387.249724 C686.91635,427.883724 653.90335,460.750724 613.25935,460.658917 Z M484.98035,606.552536 L484.98035,606.552536 L484.52235,1017.35372 C484.49435,1029.36872 474.73035,1039.08672 462.71235,1039.05878 L430.51835,1038.98272 C419.68235,1038.96472 410.91635,1030.16672 410.943287,1019.33272 L411.23635,679.970724 C411.32835,639.337724 444.34135,606.461724 484.98035,606.552536 Z M429.25035,524.592724 L429.25035,524.592724 L719.39835,233.798724 C727.88035,225.279724 727.85335,211.497724 719.33435,203.019724 L696.51535,180.303724 C688.83935,172.658724 676.41835,172.685724 668.76935,180.367724 L429.01635,420.537724 C400.34935,449.336724 400.45035,495.920724 429.25035,524.592724 Z M551.05235,533.362724 L551.05235,533.362724 L995.00835,534.976134 C1007.02435,535.048724 1016.82635,525.361724 1016.90135,513.342724 L1017.08972,481.145724 C1017.15535,470.308724 1008.43135,461.473724 997.58835,461.409724 L625.06635,460.223724 C584.43235,459.981724 551.29035,492.723724 551.05235,533.362724 Z M419.21035,431.209724 L419.21035,431.209724 L45.2283497,59.5087244 C36.6823497,51.0627244 36.5993497,37.2807244 45.0453497,28.7297244 L67.6753497,5.82972443 C75.2923497,-1.87827557 87.7133497,-1.95227557 95.4213497,5.66472443 L418.58835,327.153724 C447.49235,355.714724 447.77235,402.303724 419.21035,431.209724 Z M549.35835,533.646724 L549.35835,533.637724 L22.0853497,532.034314 C10.0673497,531.961724 0.266349692,541.643724 0.192349692,553.662724 L5.32907052e-15,585.859724 C-0.0636503083,596.696724 8.66534969,605.526724 19.5023497,605.590724 L475.34335,606.781724 C515.97835,607.019724 549.12035,574.281724 549.35835,533.646724 Z" id="Stroke-1" stroke="#D3C228" stroke-width="7.321"></path>
                <g id="Group-7" transform="translate(423.268762, 482.728849)">
                    <path d="M0.870287715,18.7935752 C4.49328772,5.26857515 18.3932877,-2.75542485 31.9132877,0.871575151 C45.4332877,4.49457515 53.4582877,18.3905752 49.8352877,31.9105752 C46.2122877,45.4355752 32.3172877,53.4555752 18.7912877,49.8375752 C5.27128772,46.2145752 -2.75371228,32.3135752 0.870287715,18.7935752" id="Fill-3" fill="#FEFEFE"></path>
                    <path d="M0.870287715,18.7935752 C4.49328772,5.26857515 18.3932877,-2.75542485 31.9132877,0.871575151 C45.4332877,4.49457515 53.4582877,18.3905752 49.8352877,31.9105752 C46.2122877,45.4355752 32.3172877,53.4555752 18.7912877,49.8375752 C5.27128772,46.2145752 -2.75371228,32.3135752 0.870287715,18.7935752 Z" id="Stroke-5" stroke="#D3C228" stroke-width="7.321"></path>
                </g>
            </g>
        </g>
    </g>
</svg>