<?xml version="1.0" encoding="UTF-8"?>
<svg width="80px" height="80px" viewBox="0 0 80 80" version="1.1" xmlns="http://www.w3.org/2000/svg" xmlns:xlink="http://www.w3.org/1999/xlink">
    <title>trails-icon</title>
    <defs>
        <path d="M5.68434189e-14,39.782 C5.68434189e-14,17.811 17.811,0 39.783,0 C61.753,0 79.564,17.811 79.564,39.782 C79.564,61.753 61.753,79.564 39.783,79.564 C17.811,79.564 5.68434189e-14,61.753 5.68434189e-14,39.782 L5.68434189e-14,39.782 Z" id="path-1"></path>
    </defs>
    <g id="Page-1" stroke="none" stroke-width="1" fill="none" fill-rule="evenodd">
        <g id="Sonders_symbols" transform="translate(-360.000000, -2.000000)">
            <g id="trails-icon" transform="translate(360.000000, 2.000000)">
                <path d="M1.13686838e-13,39.782 C1.13686838e-13,17.811 17.811,0 39.783,0 C61.753,0 79.564,17.811 79.564,39.782 C79.564,61.753 61.753,79.564 39.783,79.564 C17.811,79.564 1.13686838e-13,61.753 1.13686838e-13,39.782" id="Fill-32" fill="#CBBC31"></path>
                <g id="Group-35">
                    <mask id="mask-2" fill="white">
                        <use xlink:href="#path-1"></use>
                    </mask>
                    <g id="Clip-34"></g>
                    <path d="M60.759,38.3040322 L60.759,38.3040322 L60.841,-7.172 C60.846,-9.349 62.615,-11.111 64.793,-11.1060106 L70.625,-11.093 C72.589,-11.089 74.177,-9.493 74.1720118,-7.53 L74.119,25.003 C74.102,32.366 68.121,38.32 60.759,38.3040322 Z M37.518,64.7359637 L37.518,64.7359637 L37.436,139.158 C37.431,141.336 35.661,143.098 33.484,143.093011 L27.651,143.079 C25.688,143.075 24.1,141.481 24.1039925,139.517 L24.158,78.035 C24.174,70.674 30.156,64.719 37.518,64.7359637 Z M27.421,49.886 L27.421,49.886 L79.988,-2.798 C81.525,-4.34 81.519,-6.837 79.976,-8.373 L75.842,-12.488 C74.451,-13.874 72.201,-13.868 70.815,-12.477 L27.379,31.034 C22.185,36.252 22.204,44.692 27.421,49.886 Z M49.488,51.475 L49.488,51.475 L129.921,51.7670718 C132.098,51.78 133.874,50.025 133.887,47.848 L133.922068,42.015 C133.934,40.052 132.352,38.451 130.389,38.439 L62.897,38.225 C55.536,38.181 49.532,44.113 49.488,51.475 Z M25.602,32.968 L25.602,32.968 L-42.152,-34.373 C-43.701,-35.904 -43.715,-38.4 -42.185,-39.949 L-38.085,-44.098 C-36.706,-45.495 -34.455,-45.508 -33.059,-44.128 L25.489,14.117 C30.726,19.291 30.777,27.731 25.602,32.968 Z M49.182,51.526 L49.182,51.526 L-46.345,51.2339282 C-48.523,51.221 -50.298,52.975 -50.311,55.153 L-50.3460678,60.986 C-50.358,62.949 -48.776,64.549 -46.813,64.562 L35.772,64.776 C43.134,64.82 49.138,58.888 49.182,51.526 Z" id="Stroke-33" stroke="#FFFFFE" stroke-width="1.117" mask="url(#mask-2)"></path>
                </g>
                <path d="M26.496,45.706 C27.152,43.257 29.67,41.803 32.12,42.459 C34.569,43.116 36.023,45.634 35.367,48.083 C34.71,50.533 32.192,51.987 29.743,51.33 C27.293,50.674 25.839,48.156 26.496,45.706" id="Fill-36" fill="#63A8AE"></path>
                <path d="M26.496,45.706 C27.152,43.257 29.67,41.803 32.12,42.459 C34.569,43.116 36.023,45.634 35.367,48.083 C34.71,50.533 32.192,51.987 29.743,51.33 C27.293,50.674 25.839,48.156 26.496,45.706 Z" id="Stroke-37" stroke="#FFFFFE" stroke-width="1.118"></path>
            </g>
        </g>
    </g>
</svg>