<?xml version="1.0" encoding="UTF-8"?>
<svg width="82px" height="82px" viewBox="0 0 82 82" version="1.1" xmlns="http://www.w3.org/2000/svg" xmlns:xlink="http://www.w3.org/1999/xlink">
    <title>builder-icon</title>
    <defs>
        <polygon id="path-1" points="0 81.903 81.903 81.903 81.903 0 0 0"></polygon>
    </defs>
    <g id="Page-1" stroke="none" stroke-width="1" fill="none" fill-rule="evenodd">
        <g id="Artboard" transform="translate(-73.000000, -719.000000)">
            <g id="builder-icon" transform="translate(73.000000, 719.000000)">
                <path d="M1.0782,40.9515 C1.0782,18.9305 18.9302,1.0775 40.9522,1.0775 C62.9732,1.0775 80.8252,18.9305 80.8252,40.9515 C80.8252,62.9725 62.9732,80.8255 40.9522,80.8255 C18.9302,80.8255 1.0782,62.9725 1.0782,40.9515" id="Fill-1" fill="#61B0BC"></path>
                <path d="M1.0782,40.9515 C1.0782,18.9305 18.9302,1.0775 40.9522,1.0775 C62.9732,1.0775 80.8252,18.9305 80.8252,40.9515 C80.8252,62.9725 62.9732,80.8255 40.9522,80.8255 C18.9302,80.8255 1.0782,62.9725 1.0782,40.9515 Z" id="Stroke-3" stroke="#FEFEFE" stroke-width="2.156"></path>
                <path d="M18.7207,33.3871 L29.8037,16.9441 L51.7497,16.9441 L62.8327,33.3871 L18.7207,33.3871 Z M58.7917,55.6391 L46.8667,55.6391 L46.8667,39.5231 C46.8667,39.1941 46.6007,38.9281 46.2727,38.9281 L35.2807,38.9281 C34.9517,38.9281 34.6867,39.1941 34.6867,39.5231 L34.6867,55.6391 L22.7617,55.6391 L22.7617,34.5751 L58.7917,34.5751 L58.7917,55.6391 Z M55.6537,62.1001 L58.7917,62.1001 L58.7917,56.8271 L55.6537,56.8271 L55.6537,62.1001 Z M26.9097,62.1011 L29.9707,62.1011 L29.9707,56.8281 L26.9097,56.8281 L26.9097,62.1011 Z M31.1587,62.1011 L34.6867,62.1011 L34.6867,56.8281 L31.1587,56.8281 L31.1587,62.1011 Z M35.8747,62.1011 L45.6787,62.1011 L45.6787,40.1171 L35.8747,40.1171 L35.8747,62.1011 Z M51.4047,62.1011 L54.4657,62.1011 L54.4657,56.8281 L51.4047,56.8281 L51.4047,62.1011 Z M46.8667,62.1001 L50.2167,62.1001 L50.2167,56.8271 L46.8667,56.8271 L46.8667,62.1001 Z M22.7617,62.1001 L25.7217,62.1001 L25.7217,56.8271 L22.7617,56.8271 L22.7617,62.1001 Z M52.5587,16.0181 C52.4487,15.8541 52.2627,15.7551 52.0657,15.7551 L29.4877,15.7551 C29.2897,15.7551 29.1047,15.8541 28.9947,16.0181 L17.1117,33.6491 C16.9887,33.8311 16.9757,34.0671 17.0797,34.2601 C17.1827,34.4541 17.3847,34.5751 17.6037,34.5751 L21.5737,34.5751 L21.5737,62.6951 C21.5737,63.0241 21.8397,63.2891 22.1677,63.2891 L59.3857,63.2891 C59.7137,63.2891 59.9797,63.0241 59.9797,62.6951 L59.9797,34.5751 L63.9497,34.5751 C64.1687,34.5751 64.3707,34.4541 64.4737,34.2601 C64.5767,34.0671 64.5647,33.8311 64.4417,33.6491 L52.5587,16.0181 Z" id="Fill-5" fill="#FEFEFE"></path>
                <mask id="mask-2" fill="white">
                    <use xlink:href="#path-1"></use>
                </mask>
                <g id="Clip-8"></g>
                <path d="M26.241,47.693 L30.994,47.693 L30.994,40.117 L26.241,40.117 L26.241,47.693 Z M25.647,48.88 L31.589,48.88 C31.917,48.88 32.183,48.615 32.183,48.286 L32.183,39.523 C32.183,39.194 31.917,38.928 31.589,38.928 L25.647,38.928 C25.319,38.928 25.053,39.194 25.053,39.523 L25.053,48.286 C25.053,48.615 25.319,48.88 25.647,48.88 L25.647,48.88 Z" id="Fill-7" fill="#FEFEFE" mask="url(#mask-2)"></path>
                <path d="M50.559,47.693 L55.312,47.693 L55.312,40.117 L50.559,40.117 L50.559,47.693 Z M49.964,48.88 L55.906,48.88 C56.234,48.88 56.501,48.615 56.501,48.286 L56.501,39.523 C56.501,39.194 56.234,38.928 55.906,38.928 L49.964,38.928 C49.636,38.928 49.37,39.194 49.37,39.523 L49.37,48.286 C49.37,48.615 49.636,48.88 49.964,48.88 L49.964,48.88 Z" id="Fill-9" fill="#FEFEFE" mask="url(#mask-2)"></path>
            </g>
        </g>
    </g>
</svg>