<?xml version="1.0" encoding="UTF-8"?>
<svg width="82px" height="82px" viewBox="0 0 82 82" version="1.1" xmlns="http://www.w3.org/2000/svg" xmlns:xlink="http://www.w3.org/1999/xlink">
    <title>cross-icon</title>
    <g id="Page-1" stroke="none" stroke-width="1" fill="none" fill-rule="evenodd">
        <g id="Artboard" transform="translate(-73.000000, -823.000000)">
            <g id="cross-icon" transform="translate(74.078200, 824.077500)">
                <path d="M0,39.874 C0,17.853 17.852,0 39.874,0 C61.895,0 79.747,17.853 79.747,39.874 C79.747,61.895 61.895,79.748 39.874,79.748 C17.852,79.748 0,61.895 0,39.874" id="Fill-1" fill="#61B0BC"></path>
                <path d="M0,39.874 C0,17.853 17.852,0 39.874,0 C61.895,0 79.747,17.853 79.747,39.874 C79.747,61.895 61.895,79.748 39.874,79.748 C17.852,79.748 0,61.895 0,39.874 Z" id="Stroke-3" stroke="#FEFEFE" stroke-width="2.156"></path>
                <g id="Group" transform="translate(14.000000, 14.000000)" stroke="#FFFFFF" stroke-linecap="round" stroke-width="1.5">
                    <line x1="0.448275862" y1="26" x2="51.5517241" y2="26" id="Line"></line>
                    <line x1="0.448275862" y1="26" x2="51.5517241" y2="26" id="Line" transform="translate(26.000000, 26.000000) rotate(90.000000) translate(-26.000000, -26.000000) "></line>
                </g>
            </g>
        </g>
    </g>
</svg>